<?xml version="1.0" standalone="no"?>
<!DOCTYPE svg PUBLIC "-//W3C//DTD SVG 20010904//EN"
 "http://www.w3.org/TR/2001/REC-SVG-20010904/DTD/svg10.dtd">
<svg version="1.0" xmlns="http://www.w3.org/2000/svg"
 width="608.000000pt" height="608.000000pt" viewBox="0 0 608.000000 608.000000"
 preserveAspectRatio="xMidYMid meet">
<metadata>
Created by potrace 1.14, written by Peter Selinger 2001-2017
</metadata>
<g transform="translate(0.000000,608.000000) scale(0.100000,-0.100000)"
fill="#000000" stroke="none">
<path d="M2947 5814 c-1 -1 -45 -5 -97 -8 -124 -9 -183 -16 -315 -41 -36 -7
-136 -27 -150 -31 -5 -2 -19 -5 -30 -8 -211 -51 -499 -166 -715 -286 -86 -48
-300 -186 -346 -223 -11 -9 -48 -40 -84 -69 -36 -29 -74 -62 -86 -73 -183
-174 -255 -251 -368 -398 -65 -83 -186 -262 -186 -273 0 -3 -12 -25 -28 -48
-44 -66 -151 -288 -200 -416 -54 -142 -85 -248 -123 -415 -11 -49 -22 -99 -25
-110 -2 -11 -7 -36 -9 -55 -2 -19 -6 -45 -9 -57 -5 -26 -16 -115 -22 -193 -7
-71 -6 -409 0 -480 7 -82 15 -145 33 -245 9 -49 17 -101 19 -115 2 -14 14 -68
28 -120 136 -516 389 -959 762 -1334 39 -39 80 -78 90 -86 10 -8 45 -36 77
-62 153 -124 408 -264 534 -293 10 -2 43 -11 73 -19 141 -40 331 -38 469 4
237 72 444 267 552 519 89 210 114 455 72 701 -9 57 -10 62 -28 133 -10 37
-16 69 -14 71 10 8 240 116 248 116 5 0 49 -19 97 -43 49 -24 103 -49 120 -56
30 -12 31 -14 22 -49 -5 -20 -11 -48 -14 -62 -2 -14 -7 -31 -10 -39 -2 -8 -7
-28 -10 -45 -2 -17 -8 -55 -13 -85 -16 -100 -9 -314 13 -416 14 -66 40 -153
52 -177 8 -15 12 -28 9 -28 -3 0 9 -28 26 -63 137 -273 356 -448 622 -498 63
-12 232 -14 277 -4 14 3 43 8 65 11 101 15 400 141 460 193 11 10 27 20 35 23
18 7 177 126 228 172 334 294 599 688 759 1126 19 52 36 102 38 110 2 8 10 35
18 60 25 72 62 226 72 295 2 11 8 47 14 80 18 103 19 110 27 201 15 163 8 555
-12 657 -2 11 -6 39 -9 62 -3 22 -8 51 -10 65 -3 14 -7 41 -10 60 -3 19 -10
51 -15 70 -5 19 -11 46 -14 60 -3 14 -10 41 -15 60 -5 19 -14 51 -19 70 -17
65 -45 145 -53 155 -5 5 -9 17 -9 27 0 10 -4 26 -9 36 -5 9 -30 67 -56 127
-48 111 -112 238 -165 323 -16 26 -37 62 -46 80 -9 17 -20 32 -25 32 -5 0 -9
5 -9 10 0 9 -123 185 -140 200 -3 3 -25 30 -50 60 -74 90 -115 133 -294 305
-129 124 -388 302 -609 419 -154 82 -437 197 -512 209 -11 1 -25 6 -31 9 -6 4
-21 9 -35 12 -13 3 -51 12 -85 20 -34 8 -72 17 -85 20 -13 3 -33 7 -44 9 -11
3 -42 8 -68 11 -27 4 -58 9 -69 11 -20 4 -80 11 -188 21 -52 5 -339 12 -343 8z
m308 -399 c113 -9 191 -19 245 -30 14 -3 40 -8 59 -11 52 -9 63 -11 111 -24
25 -7 52 -13 60 -15 55 -11 288 -95 382 -138 29 -14 60 -27 68 -31 8 -3 47
-24 85 -46 39 -22 81 -46 95 -53 14 -6 27 -14 30 -17 3 -3 25 -18 50 -34 66
-42 177 -123 245 -180 82 -67 290 -279 345 -351 25 -32 55 -70 67 -83 13 -14
23 -28 23 -33 0 -4 6 -14 13 -21 47 -49 198 -319 262 -468 64 -150 137 -392
159 -525 2 -16 7 -43 10 -60 36 -193 41 -529 11 -755 -2 -14 -6 -45 -9 -71 -4
-25 -11 -60 -16 -78 -5 -18 -9 -36 -8 -40 0 -3 0 -8 -2 -11 -1 -3 -4 -16 -6
-29 -7 -38 -34 -144 -41 -161 -3 -8 -7 -17 -8 -20 -2 -11 -27 -86 -32 -100 -3
-8 -7 -20 -8 -25 -7 -31 -94 -224 -142 -314 -204 -386 -486 -692 -793 -864
-105 -58 -193 -89 -306 -106 -186 -27 -362 59 -463 228 -55 92 -107 281 -103
376 5 116 17 203 47 319 6 26 4 26 75 11 166 -34 233 -40 460 -40 113 0 232 3
265 8 33 4 76 9 95 12 19 2 52 7 72 11 21 3 39 6 40 5 2 0 77 19 168 43 l165
43 -1 29 c-1 16 -3 38 -6 49 -10 41 -29 110 -35 125 -3 8 -8 23 -10 34 -4 22
-47 150 -64 191 -7 17 -13 32 -13 35 -3 18 -78 178 -114 245 -24 44 -46 88
-49 97 -3 10 -9 18 -14 18 -5 0 -9 5 -9 10 0 9 -86 147 -100 160 -3 3 -21 25
-40 50 -19 25 -38 47 -42 48 -17 8 -6 32 35 84 55 67 157 214 157 224 0 4 6
15 14 23 36 40 203 392 215 453 1 4 10 28 21 53 11 25 20 49 20 53 0 4 10 38
21 76 11 38 22 76 24 85 2 9 8 28 14 44 6 15 9 27 6 27 -2 0 3 16 11 36 10 23
12 40 6 46 -8 8 -151 50 -212 63 -8 2 -53 12 -100 23 -227 54 -409 76 -625 76
-144 -1 -306 -14 -358 -30 -11 -3 -19 1 -23 13 -62 181 -223 463 -370 650 -77
96 -301 333 -315 333 -5 0 -44 -35 -86 -78 -274 -275 -425 -491 -559 -797 -42
-95 -56 -119 -71 -118 -10 2 -43 5 -73 8 -30 2 -55 5 -55 5 0 12 -312 17 -435
7 -41 -3 -75 -7 -75 -8 0 -1 -11 -3 -25 -4 -14 -1 -43 -5 -65 -9 -22 -4 -55
-9 -74 -12 -19 -3 -64 -12 -100 -20 -36 -8 -77 -17 -91 -20 -61 -12 -296 -76
-301 -82 -4 -4 1 -32 11 -62 9 -30 29 -98 45 -150 24 -83 80 -246 105 -305 99
-237 246 -488 358 -613 38 -43 40 -59 9 -92 -12 -14 -38 -47 -57 -75 -19 -27
-37 -52 -40 -55 -7 -6 -83 -127 -112 -178 -42 -74 -118 -231 -118 -244 0 -8
-4 -18 -9 -23 -25 -26 -161 -479 -147 -492 20 -20 408 -108 526 -119 36 -3 76
-8 90 -10 31 -5 348 -5 375 0 11 2 53 7 94 10 41 4 77 9 80 11 3 1 30 6 58 10
29 3 66 10 83 15 32 9 36 6 44 -31 3 -13 10 -44 16 -69 75 -334 -36 -670 -262
-790 -151 -80 -326 -70 -538 33 -36 18 -66 35 -68 40 -2 4 -8 7 -14 7 -12 0
-102 61 -106 72 -2 4 -8 8 -14 8 -9 0 -47 29 -142 110 -51 42 -196 194 -196
204 0 3 -12 18 -26 33 -64 69 -279 395 -268 406 3 2 -2 10 -11 17 -8 7 -15 16
-15 21 0 5 -18 45 -40 90 -22 45 -40 86 -40 91 0 4 -9 27 -19 51 -17 37 -46
115 -57 157 -2 8 -18 65 -34 125 -17 61 -32 127 -35 148 -2 21 -6 41 -9 45 -3
5 -7 28 -10 53 -3 24 -8 60 -11 79 -25 177 -25 380 1 650 3 31 27 171 38 225
54 245 187 576 313 773 18 29 33 55 33 58 0 2 5 10 10 17 6 7 40 53 76 102
269 366 627 652 1044 832 118 51 296 111 380 128 8 2 15 4 15 5 0 1 7 3 15 5
26 6 84 17 105 21 43 7 142 23 175 28 19 3 87 9 150 12 63 4 116 7 117 8 4 3
154 -3 228 -9z m-132 -887 c104 -141 239 -386 254 -460 4 -23 2 -28 -13 -28
-11 0 -82 -31 -159 -69 l-140 -70 -141 70 c-77 38 -148 69 -157 69 -9 0 -17 5
-17 11 0 22 96 223 151 314 38 64 159 235 166 235 2 0 27 -33 56 -72z m-933
-733 c25 -4 51 -7 58 -8 11 0 16 -11 13 -30 -1 -4 -4 -24 -7 -45 -3 -20 -7
-44 -9 -52 -4 -15 -14 -131 -19 -229 -2 -40 -8 -58 -22 -67 -10 -7 -24 -17
-30 -22 -5 -5 -21 -15 -34 -22 -13 -7 -29 -17 -34 -22 -6 -5 -40 -30 -76 -56
-35 -26 -80 -61 -99 -78 l-34 -32 -22 27 c-12 14 -32 42 -45 61 -13 19 -27 37
-31 40 -14 11 -129 211 -167 291 -47 99 -86 198 -80 205 4 4 37 10 143 29 17
2 68 8 115 11 47 3 86 7 88 9 5 4 249 -4 292 -10z m2145 1 c28 -4 68 -9 90
-11 22 -3 49 -7 60 -9 11 -3 32 -5 46 -5 36 -1 66 -25 53 -42 -6 -8 -17 -30
-24 -49 -17 -44 -132 -283 -139 -290 -3 -3 -20 -29 -38 -57 -43 -71 -135 -193
-145 -193 -4 0 -42 28 -85 63 -43 34 -115 87 -160 116 -59 38 -83 60 -84 75
-4 105 -15 222 -24 276 -3 14 -8 46 -11 72 -5 41 -4 47 13 47 24 -1 167 12
170 15 6 5 229 -2 278 -8z m-1613 -160 c40 -18 113 -56 162 -85 49 -28 92 -51
97 -51 4 0 9 -3 11 -7 6 -14 88 -54 88 -44 0 6 4 11 9 11 5 0 49 25 100 55
143 86 294 157 302 142 8 -13 17 -90 25 -206 3 -41 7 -78 10 -82 2 -4 0 -11
-6 -14 -6 -4 -7 -12 -3 -18 5 -7 8 -23 7 -37 -4 -64 -6 -117 -5 -135 1 -20 13
-29 121 -87 57 -31 226 -143 246 -162 6 -6 27 -22 47 -36 20 -14 37 -30 37
-36 0 -10 -22 -35 -138 -159 -65 -69 -118 -131 -147 -171 -11 -15 -25 -32 -30
-38 -6 -6 -26 -33 -45 -61 -19 -27 -37 -52 -40 -55 -9 -7 -60 -98 -90 -157
l-26 -52 -100 48 c-54 26 -140 73 -191 105 l-92 57 -118 -69 c-65 -37 -136
-76 -158 -86 -22 -10 -57 -27 -77 -38 l-38 -18 -23 47 c-13 27 -35 67 -50 90
-15 24 -27 47 -27 52 0 5 -4 11 -8 13 -5 2 -24 28 -44 58 -50 74 -180 231
-280 336 -46 47 -83 91 -83 97 0 13 155 136 172 137 6 0 13 4 15 8 3 9 127 84
217 133 l44 24 3 175 c2 157 7 235 19 295 2 11 4 28 4 38 1 22 -1 23 83 -17z
m-646 -1282 c66 -77 174 -228 174 -242 0 -7 3 -12 8 -12 8 0 36 -59 31 -64 -2
-2 -24 -6 -49 -9 -25 -4 -56 -9 -70 -12 -65 -14 -291 -21 -400 -12 -143 12
-190 19 -183 31 4 6 8 17 10 25 1 8 31 73 66 145 62 126 109 205 185 310 l35
48 71 -75 c39 -41 94 -101 122 -133z m2213 151 c22 -30 41 -58 41 -63 0 -5 9
-17 20 -27 11 -10 20 -22 20 -27 0 -5 13 -28 28 -51 29 -43 95 -175 131 -259
l19 -47 -21 -7 c-79 -25 -400 -31 -542 -10 -16 2 -52 7 -80 11 -27 4 -53 10
-57 14 -15 13 139 239 227 336 77 85 170 185 171 185 1 0 20 -25 43 -55z"/>
</g>
</svg>
