<svg width="18" height="11" fill="none" xmlns="http://www.w3.org/2000/svg"><path d="M13.32 10.743a.725.725 0 0 0 .566-.269l3.507-4.356a.726.726 0 0 0 0-.922L13.763.84a.727.727 0 1 0-1.118.93l3.245 3.89-3.136 3.892a.727.727 0 0 0 .566 1.19zM7.06 9.714a.579.579 0 0 0 .45-.214l2.797-3.474a.579.579 0 0 0 0-.735L7.412 1.817a.58.58 0 1 0-.891.741l2.588 3.103-2.501 3.104a.579.579 0 0 0 .451.949zM.995 8.673a.43.43 0 0 0 .336-.159l2.078-2.582a.43.43 0 0 0 0-.546L1.258 2.804a.43.43 0 1 0-.663.55L2.52 5.662.659 7.968a.43.43 0 0 0 .336.705z" fill="#10AA42"/></svg>