<svg width="2673" height="2032" fill="none" xmlns="http://www.w3.org/2000/svg"><g filter="url(#a)"><circle cx="625.61" cy="625.275" r="257.093" fill="#53C351" fill-opacity=".33"/></g><g filter="url(#b)"><circle cx="1599.91" cy="1406.51" r="257.093" fill="#53C351" fill-opacity=".33"/></g><g filter="url(#c)"><circle cx="1963.87" cy="804.396" r="340.615" fill="#FFE978" fill-opacity=".33"/></g><path d="M1707.44 1349.01c24.76-12.35 53.75-36.25 97.39-64.67 49.3-32.14 162.44 21.7 226.13-123.32 6.69-15.23 11.36-31.85 13.63-47.59 36.33-253.892-255.74-405.324-491.89-303.957-101.69 43.653-235.12 134.311-190.46 345.877 30.82 146.06 179.13 276.49 345.2 193.66z" fill="#fff"/><path d="m1648.07 1119.15 79.46-15.06s12.25-7.96 56.45 29.01c27.49 22.96-3.98 42.78 55.71 47.55 87.3 6.98 236.64 102.42 153.12 252.66-46.28 83.26-71.07-22.06-132.67-6.79-11.76 4.16-19.47 6.79-20.45 6.79-5.02 0-194.2-121.02-194.2-121.02l2.58-193.14z" fill="#1E1735"/><path d="M1422.1 1444.82c11.08-22.83 23.26-52.03 34.83-92.93 11.08-39.3 59.94-35.13 106.65-56.68 46.77-21.55 95.14-34.04 141.42-4.96 55.84 35.01 112.96 41.01 141.67 79.89 3.98 5.44 8.75 15.48 9.86 17.63 5.08 10.1 12.61 40.04 15.85 52.1-15.97 9.36-33.98-1.84-45.98 3.18-132.72 55.64-281.06 50.99-404.3 1.77z" fill="#FFBCB0"/><path d="M1802.34 1001.79c-.3-3.24.98-5.933 3-7.77-.98.551-2.08.918-3.3 1.163-4.11.735-11.09-.612-12.55-7.346-.56-5.999 4.04-8.938 6.12-9.917 2.63-1.286 5.14-1.408 7.16-1.041-2.57-1.102-4.65-3.244-5.33-6.366-1.04-10.101 11.27-14.203 17.7-10.04 1.1.735 2.63 2.02 3.49 4.163.06-7.897 10.16-13.346 17.69-8.877 5.63 3.367 5.82 10.346 1.65 14.631.19-.122.31-.183.49-.245 1.96-.918 3.06-1.04 4.47-1.224.19 0 3.8-.428 7.23 1.714 7.71 4.959 5.2 15.978-4.11 18.243-2.2.551-3.91.306-4.65.245-.24 0-.49-.123-.73-.184.36.184.67.367 1.04.612 7.47 4.959 4.89 15.799-4.23 17.879-2.45.55-6.18.67-10.04-2.15-.49-.3-1.96-1.65-2.75-3.3-.25-.55-.37-1.16-.49-1.78 0 4.41-3.37 8.82-9.06 9.8-2.94.3-11.08-.12-12.8-8.21z" fill="#fff"/><path d="M1823.28 989.062c6.31-1.531 8.08-8.938 2.82-12.121-4.96-3.061-12.8.367-12.19 6.856 1.11 4.959 6.13 6.061 9.37 5.265z" fill="#FFBCB0"/><path d="M1802.1 995.122c8.02-1.469 12.55-11.019 5.69-16.345-.06-.061-5.63-4.163-12.18-.979-2.02.979-6.67 3.918-6.12 9.917 1.53 6.856 8.51 8.142 12.61 7.407zM1846.12 988.755c9.3-2.204 11.81-13.284 4.1-18.243-3.43-2.142-7.04-1.714-7.23-1.714-1.4.184-2.51.306-4.46 1.225-1.29.612-2.15 1.714-3.31 2.387-.06 0-3.31 2.632-2.82 8.264.62 2.816 1.72 4.959 5.21 6.979.55.306 1.16.245 1.77.429.74.245 1.35.734 2.15.796.67.183 2.38.428 4.59-.123z" fill="gold"/><path d="M1810.61 977.43c4.1-1.041 7.28-3.918 8.26-7.591.37-1.286.37-1.286-.12-3.429-.12-.612.06-1.224-.18-1.775-.86-2.142-2.33-3.428-3.49-4.163-6.49-4.162-18.74-.061-17.7 10.04 1.41 5.999 7.78 8.203 13.23 6.918zM1837.61 1007.24c9.12-2.08 11.69-12.914 4.22-17.873-6.55-4.346-16.96-.918-17.94 8.02.49 1.469.25 3.003.92 4.403.8 1.66 2.33 3 2.76 3.31 3.79 2.82 7.53 2.75 10.04 2.14z" fill="gold"/><path d="M1815.2 1009.81c8.94-1.53 12.24-11.565 5.51-16.769-6.8-5.203-19.22-.673-18.31 8.759 1.66 8.08 9.8 8.5 12.8 8.01zM1832.95 973.389c8.76-2.693 10.78-13.284 3.37-17.692-8.02-4.774-19.04 1.776-17.57 10.469 1.23 6.427 8.45 8.999 14.2 7.223z" fill="gold"/><path d="M1697.35 742.293c-3 1.286-3.49 9.305-3.43 11.264.31 6.611 3.06 14.202 6.61 22.467-4.34 5.632-8.87 6.979-13.34 10.958-8.88 7.836-4.72 10.284-4.35 10.468 5.63 2.449 17.2-6.918 21.24-13.407 2.02 4.53 4.11 9.183 6.06 14.019.43 1.102.86 2.326 1.17 3.551-.31.428-.61.918-.98 1.408-10.47 13.161-18.31 12.488-27.49 17.569-14.14 7.897-9.25 12.366-8.82 12.672 6.92 5.02 25.9-4.775 32.76-12.305 1.16-1.285 3.49-3.856 5.51-7.285-1.96 29.018-30.19 66.299-56.2 43.159-6-5.326-7.6 3.979-19.29 4.285-9.92.245-16.9-9.366-19.22-12.305-11.82-14.937-13.84-39.24-4.78-58.524 8.7-18.365 27-31.159 43.29-34.587 5.63-1.225 24.91-1.164 28.89-6 4.78-5.877 8.63-8.203 11.14-9.182 2.02-.98 3.31.857 1.23 1.775zm-6 31.16c-.18-.123-.55-.123-1.59.367-.86.428-6.19 3.183-6.68 8.509-.06.918-.18 1.898.37 2.265 1.1.735 4.16-1.347 6-3.795 2.02-2.816 2.88-6.734 1.9-7.346z" fill="#346E00"/><path d="M1863.01 1122.7c-4.65.12-10.28-9.92-11.38-12.55-3.68-8.76-4.78-20.33-5.33-33.24-9.12-4.66-15.79-3.61-24.12-6-16.41-4.72-12.49-10.47-12.12-10.9 5.75-6.67 26.63-1.65 35.87 4.29-.18-7.11-.3-14.51-.73-21.92-.12-1.71-.37-3.49-.67-5.26-.68-.43-1.35-.8-2.15-1.23-21.67-10.59-31.53-4.83-46.59-5.81-23.2-1.53-19.65-10.35-19.28-11.02 5.94-10.84 36.61-9.8 50.14-4.23 2.33.98 6.86 2.88 11.63 6.06-20.45-36.483-80.26-67.459-99.73-21.301-4.47 10.591-12.37-.428-27.67 6.371-13.04 5.75-16.1 22.59-17.33 27.85-6.06 26.69 6.31 59.56 30 78.97 22.65 18.55 54.31 23.75 77.57 18.18 8.08-1.96 33.12-13.89 41.26-10.04 9.86 4.65 16.29 5.27 20.14 5.08 3.25-.24 3.8-3.36.49-3.3zm-27.06-36.73c-.18.3-.61.55-2.26.49-1.41 0-9.98-.31-13.9-6.92-.67-1.1-1.41-2.33-.92-3.12.92-1.66 6.25-.86 10.11 1.22 4.34 2.39 7.89 6.92 6.97 8.33zM1579.62 720.132c-2.57 2.878.73 11.754 1.84 13.897 3.55 6.979 10.22 13.835 18.12 21.059-1.96 8.264-6.19 11.876-9.12 18.365-5.82 12.856-.07 13.406.42 13.406 7.29-.061 15.25-15.916 16.47-24.854 4.41 3.918 8.94 7.897 13.41 12.182 1.04.98 2.02 2.082 2.94 3.245-.12.612-.18 1.286-.37 2.02-4.9 19.284-13.77 22.406-21.18 32.384-11.45 15.427-3.98 17.876-3.37 17.998 9.98 2.081 25.71-17.814 29.39-29.262.61-1.959 1.9-5.815 2.39-10.529 12.06 32.323-.31 86.5-39.74 74.134-9.06-2.816-6.3 8.02-18.79 14.019-10.59 5.081-22.84-1.898-26.82-3.979-20.02-10.407-34.1-35.751-33.67-60.973.43-24.12 14.02-46.831 29.94-58.524 5.51-4.04 26.38-13.406 28.28-20.569 2.33-8.693 5.39-13.1 7.59-15.365 1.78-2.02 4.11-.674 2.27 1.346z" fill="#7CA417"/><path d="M1840.48 813.488c-.24-11.631-5.26-17.018-1.77-27.119 1.29-3.612 3.37-7.101 2.26-8.081-1.46-1.285-7.34 3.245-9.12 4.469-14.75 10.407-43.53 1.592-49.53 0-36.48-9.489-91.15 24.671-117.79 47.872-12.3 10.713-61.4 53.504-57.12 107.988.19 2.02-2.32 40.525 23.94 48.361 16.65 4.959 26.82-13.529 44.75-5.877 11.76 5.02 15.62 14.264 26.88 17.019 15 3.67 30.98-12.917 34.65-16.957 13.29-14.631 8.57-23.324 22.84-50.872 6.67-12.917 12.3-23.752 23.63-34.955 10.41-10.285 18.43-13.774 23.81-19.161-9.24 1.53-20.14-.674-31.71-6.489-7.9-3.979-14.2-10.836-13.22-11.693.86-.734 9.3 6.673 21.61 7.591 16.59 1.286 25.35-2.693 30.67-6.06 1.1-10.285-1.77-19.345 2.08-20.875 3.13-1.286 5.88 4.407 10.53 3.673 6.92-1.225 12.86-15.794 12.61-28.834z" fill="#7CA417"/><path d="M1666.86 971.429c-2.08 12.672-3.12 25.467-3.18 38.261-.06 6.43.18 12.79.55 19.22.18 3.19.43 6.43.73 9.61.25 3.25.49 6.55.68 9.8.73 13.1.67 26.26-.07 39.36-.24 4.47-.61 9-1.04 13.47h-8.57c.55-4.65 1.04-9.37 1.47-14.02 1.04-12.79 1.41-25.65.98-38.44-.12-3.19-.24-6.37-.43-9.62-.18-3.24-.36-6.48-.49-9.79-.24-6.55-.3-13.1-.12-19.71.37-13.103 1.78-26.203 4.16-39.12 2.45-12.917 5.94-25.589 10.6-37.832l1.77-4.592 1.9-4.53c1.28-2.999 2.57-5.999 3.92-8.938a233.839 233.839 0 0 1 8.81-17.508c6.37-11.447 13.66-22.344 22.1-32.323 8.39-9.978 17.94-19.099 28.47-26.752a145.681 145.681 0 0 1 16.53-10.468l4.35-2.265c1.47-.734 2.94-1.408 4.41-2.081 3-1.347 5.93-2.632 9-3.734 12.12-4.653 24.85-7.714 37.77-9.305-12.86 1.836-25.47 5.203-37.41 10.162-3 1.224-5.94 2.571-8.87 3.918-1.47.734-2.88 1.408-4.35 2.203l-4.22 2.327c-5.64 3.183-10.96 6.795-16.11 10.713-10.22 7.836-19.4 17.018-27.48 27.058-8.09 10.039-15 20.936-21 32.323-3 5.693-5.76 11.508-8.27 17.447a231.905 231.905 0 0 0-3.67 8.937l-1.78 4.469-1.65 4.53c-4.29 12.06-7.41 24.548-9.49 37.22z" fill="#9FBC50"/><path d="M1804.12 988.509c-.92-4.531-.25-5.51 1.41-9.306 3.36-8.019 20.63-9.243 31.53-24.303 6.91-9.55 24.73-3.489 37.1-11.876 8.75-5.999-.13-10.897 20.81-19.59 31.9-13.161 30.31-32.445 29.14-33.118-1.83-1.041-2.32 4.591-4.96 7.101-12.42 11.754-78.11-22.467-142.4 8.02-27.97 13.284-49.1 34.159-58.16 62.931-6.61 21.059-1.1 33.062 6.86 32.142 9.43-1.044 1.84 4.04 6.37 12.98 18.55 37.15 75.79-7.96 72.3-24.981z" fill="#346E00"/><path d="m1663.74 1077.21-5.7-.24c4.72-7.53 9.68-14.94 14.82-22.22 14.08-19.96 29.75-38.94 47.2-56.018 17.51-17.08 36.86-32.323 57.92-44.689 21.06-12.366 43.83-21.854 67.53-27.793 2.93-.673 5.93-1.408 8.87-2.081l8.94-1.959c5.94-1.347 11.82-2.755 17.69-4.469 5.82-1.714 11.57-3.734 17.08-6.244 5.51-2.51 10.78-5.632 15.37-9.672-4.53 4.101-9.79 7.285-15.24 9.917-5.51 2.632-11.27 4.714-17.08 6.55-5.82 1.775-11.76 3.306-17.64 4.714l-8.87 2.081-8.82 2.204c-23.45 6.306-45.91 16.039-66.61 28.65-20.69 12.611-39.67 27.976-56.69 45.179-17.02 17.2-32.2 36.18-45.85 56.2-4.53 6.49-8.82 13.16-12.92 19.89z" fill="#7CA417"/><path d="M1681.55 906.601c-10.65-26.324-32.2-44.689-54.48-51.729-5.88-1.836-15.92-4.897-23.45.061-11.82 7.714-8.39 29.201-13.1 29.813-5.88.796-7.59-31.282-25.84-39.24-13.53-5.877-32.45.184-42.91 10.529-26.64 26.385-20.7 77.379-6 109.335 8.57 18.732 34.34 61.95 67.16 69.67 6.55 1.53 29.63 5.5 35.57 20.5 1.28 3.25 1.1 5.33 2.87 6.31 7.59 4.04 33.43-22.59 47.94-49.34 6.55-12.06 31.59-58.159 12.24-105.909zm-20.38 0c-.68.673-11.94-7.346-34.47-23.446-3.55-2.51-7.23-5.204-6.67-6.673.79-2.081 10.16-1.102 17.2 1.714 16.71 6.612 26.51 25.895 23.94 28.405z" fill="#346E00"/><path d="M1552.44 910.641c6.18-4.836 15 5.326 27.61.061 12.18-5.081 23.69-21.671 19.65-33.425-6.86-20.079-3.73-38.75-9.18-50.81-8.76-19.467-30.98-33.547-86.14-50.749-6.06-1.898-11.51-3.551-16.41-5.02 2.69 3.918 5.33 8.264 7.47 13.162 1.22 2.693 6.12 14.019 5.02 28.343-.37 4.959-1.1 14.693-7.16 17.447-.49.184-2.64.735-5.02-.367-4.53-2.081-4.66-10.04-4.72-23.997-.06-22.651-1.1-31.65-2.57-36.547-13.83-3.795-22.96-5.203-30.79-3.367-11.57 2.755-27.49 9.734-35.94 3.245-4.9-3.796-2.63-9.305-4.78-9.244-4.4.061-4.53 25.221-11.57 53.259-10.77 43.097-9.67 39.73-9.18 51.3.06 2.02.25 3.979.49 5.877 45 22.161 75.18 11.142 85.89 13.59 1.96.429 9.06 2.082 9.31 4.898.31 4.101-13.78 8.264-16.77 9.182-18.25 5.387-51.55 8.632-72.31-4.958 7.41 17.447 19.78 31.955 31.16 45.239 19.11 22.345 36.61 42.791 64.84 45.913 17.14 1.898 40.16-4.53 51.49-17.385 16.52-18.794-5.27-44.016 9.61-55.647z" fill="#9FBC50"/><path d="M1548.46 1093.19c-4.78-34.4-20.39-58.89-21.25-64.58-.06-.43-.67-4.47 1.35-5.76 1.96-1.22 5.57.68 6.8 1.9 27.73 27.3 13.71 71.56 20.75 96.05.43-.61.92-1.29 1.47-1.96 10.04-13.22 44.94-51.97 40.34-102.23-.61-6.86-4.28-26.632-18.55-34.039-18.91-9.795-29.57-8.448-52.09.918-9.31 3.857-.37-16.773-7.96-33.975-.74-1.653-9.8-21.427-30.12-28.956-32.27-11.999-63.68 17.814-65.02 19.1-8.14 7.958-12.49 16.283-18.43 27.67-5.02 9.55-10.96 21.181-13.1 36.912-2.14 15.43 2.2 14.08-.43 28.28-2.75 14.76-8.57 22.41-4.96 33.74.43 1.34.92 2.38 1.29 3.36 6.24-5.57 14.51-11.45 23.69-15.3 3.98-1.72 14.82-6.31 18.37-2.39 1.16 1.29 1.34 3.31 1.04 4.84-1.29 5.63-10.9 7.71-16.29 9.18-12.18 3.3-21.18 8.51-27.43 12.67-3 4.59-9.85 6.12-13.1 12.43-7.4 14.32 11.15 38.57 13.23 41.26 5.02 6.43 6.55 5.94 9.55 11.39 5.26 9.54 4.28 17.75 11.51 22.52 1.65 1.1 5.14 3.37 4.47 1.84-.86-1.9-.98-13.77 7.28-20.39 7.41-5.93 53.45 10.84 95.69-1.65 2.02-12.18 5.21-32.93.18-59.01-1.77-9.12-5.69-25.04 1.84-31.16 2.02-1.65 5.21-2.82 7.96-2.02 8.51 2.45 9.55 22.16 9.92 29.32 1.16 22.22-4.1 44.75-9.74 59.26 8.64-3.67 17.02-8.82 24.68-15.86.79-.73 1.47-1.47 2.14-2.32-1.41-6.61-3.06-16.41-5.08-31.04z" fill="#7CA417"/><path d="M1432.93 1083.95c9.49-20.51 21.06-40.22 35.2-58.04 7.05-8.94 14.76-17.38 23.27-25.04 8.51-7.648 17.75-14.566 28.04-20.014 5.14-2.694 10.53-5.02 16.16-6.673 5.63-1.653 11.57-2.693 17.63-2.632 1.53 0 3.06.122 4.53.306 1.53.184 3.06.428 4.47.734 2.88.613 5.76 1.347 8.63 2.327 5.64 1.897 11.09 4.591 15.98 7.958 9.92 6.734 17.76 16.161 23.57 26.384 5.88 10.22 9.92 21.3 12.86 32.45 3 11.2 4.9 22.59 6.18 34.03.55 4.9.98 9.8 1.29 14.76h-11.02c-.18-4.6-.43-9.13-.86-13.72-.92-11.02-2.45-21.97-4.96-32.69-2.51-10.65-6.06-21.12-11.14-30.61-5.08-9.48-11.75-19.218-20.39-25.401-4.28-3.122-9.06-4.468-14.08-6.366a68.754 68.754 0 0 0-7.65-2.326 47.39 47.39 0 0 0-3.86-.735 40.74 40.74 0 0 0-3.85-.367c-5.21-.245-10.59.489-15.8 1.897-5.2 1.347-10.28 3.367-15.24 5.816-9.86 4.836-18.98 11.264-27.49 18.492-8.45 7.22-16.29 15.3-23.45 23.87-14.39 17.14-26.45 36.3-36.43 56.44-10.04 20.14-18.06 41.32-24.3 63 5.75-21.92 13.22-43.35 22.71-63.85z" fill="#9FBC50"/><path d="M1425.95 791.144c3.68 4.592 7.59 9.061 11.57 13.407 8.02 8.693 16.35 16.957 24.92 25.099 17.08 16.223 34.84 31.833 52.71 47.199 8.94 7.652 18 15.243 27 22.834l13.59 11.386c2.27 1.898 4.53 3.796 6.8 5.755 1.1.979 2.26 2.02 3.37 3.061 1.1 1.101 2.14 2.142 3.18 3.305a53.68 53.68 0 0 1 5.63 7.285 66.965 66.965 0 0 1 4.59 7.958c2.76 5.449 4.78 11.203 6.62 16.896.91 2.878 1.77 5.694 2.51 8.632.79 3 1.34 5.999 1.89 8.938.98 5.938 1.72 11.815 2.39 17.692 1.35 11.749 2.51 23.509 3.92 35.199 1.41 11.69 3 23.32 4.96 34.83 3.49 20.57 8.08 40.9 14.57 60.61h-9.92c-5.75-19.47-9.79-39.36-12.79-59.32-1.78-11.75-3.13-23.57-4.29-35.32-1.16-11.76-2.14-23.57-3.24-35.265-.56-5.877-1.17-11.692-2.03-17.386-.42-2.877-.91-5.693-1.59-8.386-.67-2.755-1.47-5.632-2.26-8.387-1.66-5.571-3.49-11.019-5.94-16.161-1.16-2.572-2.57-5.082-4.04-7.469-1.47-2.387-3.18-4.653-5.02-6.795-.92-1.102-1.9-2.082-2.88-3.122-1.04-.98-2.02-2.02-3.06-3-2.14-1.959-4.35-3.918-6.55-5.877l-13.29-11.692a2373.817 2373.817 0 0 1-26.5-23.569c-17.58-15.794-34.9-31.894-51.61-48.607-8.33-8.386-16.53-16.896-24.37-25.772-3.86-4.469-7.65-8.999-11.27-13.713-3.55-4.713-6.97-9.611-9.61-14.876 2.88 5.265 6.43 9.979 10.04 14.631z" fill="#7CA417"/><path d="M1569.52 1322.76c-11.02-17.7 8.75-27.12-5.82-64.16-4.77-12.12-16.83-27.43-32.02-37.83-11.38-7.78-17.69-5.88-20.38-11.63-8.94-19.16 32.69-63.12 37.83-66.91 23.39-17.27 58.28-29.76 84.36-32.08 4.17-.37 47.15-3.74 58.23 17.44 6.55 12.62-2.94 26.21-14.57 55.28-9.8 24.55-6.07 52.59 5.81 78.55 6.61 14.44 21.55 26.2 31.59 38.07 9.37 11.08 2.39 31.1-31.4 40.59-37.17 10.47-94.53 13.35-113.63-17.32z" fill="#F2A878"/><path d="M1472.36 1112.23c.73-1.35 2.51-3.92 2.51-7.47 0-3.98-2.2-9.3-2.51-9.92-5.33-11.38-.92-42.6 10.96-72.29h236.13c4.41 8.93 7.59 18.91 8.69 30.05.62 6.25 4.41 31.04-9.91 52.16-47.21 69.54-99.49-17.87-115.9-12.43-6.43 2.15-7.59 20.45-9.91 57.12-1.54 24.43-.19 30.55-4.96 42.24-7.96 19.53-26.51 30.18-33.12 34.77 0 0-25.11 17.51-52.17 14.88-5.75-.55-9.61-2.21-12.42-4.96-3.92-3.92-4.11-9.12-4.96-12.43-6.19-23.57-11.21-31.04-14.88-52.16-.43-2.57-1.22-6.18-2.51-7.46-3.49-3.49-8.45-3.25-12.43-4.96-8.69-3.74-1.16-15.43 0-17.39 3.74-6.18 8.7-13.65 17.39-29.75z" fill="#FFB383"/><path d="M1786.43 1164.94c-4.9 54.73-97.41 63.48-99.43-8.02-1.96-71.57 107.32-79.83 99.43 8.02zM1493.73 1022.55c.18.42.3.91.49 1.34 3.3 8.57 8.57 16.23 14.57 23.2 12.12 14.08 27.3 24.86 42.73 36 7.65 5.69 15.24 11.69 22.16 18.55 6.8 6.98 13.04 14.63 17.69 23.2 2.45 4.22 4.47 8.63 6.31 13.16 1.71 4.53 3.31 9.12 4.47 13.78 2.39 9.3 3.92 18.79 4.41 28.28-4.35-18.49-10.29-36.55-20.33-52.04-5.02-7.71-10.9-14.81-17.63-21.12-6.67-6.36-14.02-12.06-21.67-17.63-7.53-5.69-15.31-11.2-22.65-17.5-7.29-6.31-14.21-13.17-20.09-20.94-5.93-7.71-10.89-16.35-13.53-25.83-.24-.86-.42-1.66-.61-2.51h3.68v.06z" fill="#1E1735"/><path d="M1713.39 1124.41c2.08-3 4.35-5.75 6.43-8.57 2.14-2.82 4.1-5.69 5.87-8.75 7.04-12.06 10.6-25.84 11.33-39.61.67-13.84-1.1-27.92-5.82-40.71-.49-1.41-1.04-2.82-1.59-4.16h7.9c.18.55.43 1.16.61 1.77 4.72 14.14 6.37 28.96 4.96 43.59-.67 7.28-2.08 14.57-4.47 21.55-2.39 6.91-5.57 13.65-9.67 19.71-4.1 6.06-9.25 11.26-13.78 16.59-2.26 2.69-4.28 5.57-5.81 8.75-1.59 3.13-2.63 6.55-3.43 10.04.43-3.55 1.1-7.1 2.39-10.47 1.16-3.55 3-6.73 5.08-9.73z" fill="#1E1735"/><path d="M1728.63 1022.55c1.84 4.77 3.43 9.79 4.47 15.18 1.1 5.39 7.29 36.06-7.47 64.58-9.98 19.23-21.67 22.47-24.85 42.18-1.53 9.74-.43 19.77-7.47 32.26-2.82 5.02-5.39 9.37-9.92 12.43-22.35 14.88-48.12-4.22-64.59-24.85-11.81-14.82-10.96-15.68-12.43-22.35-2.63-11.81-.49-7.59-2.51-13.4-7.96-23.63-44.69-40.65-81.91-71.02-14.63-11.93-22.59-23.08-27.31-34.77-.06-.06-.06-.18-.12-.24h234.11z" fill="#1E1735"/><path d="M1816.67 1014.22c-4.16 1.77-12.92-5.33-14.88-7.29-6.49-6.61-11.63-16.708-16.71-28.278-9.98-.979-15.67 2.388-24.06 3.245-16.59 1.653-15.06-5.02-14.88-5.571 2.82-8.142 23.57-11.019 34.1-8.999-2.69-6.428-5.51-13.039-8.51-19.651a45.706 45.706 0 0 0-2.51-4.53c-.73-.122-1.53-.245-2.38-.306-23.51-1.898-30.37 6.856-44.39 11.387-21.61 6.978-21.55-2.327-21.43-3.123 1.47-11.937 29.69-22.038 44.02-21.793 2.45.061 7.29.123 12.73 1.347-31.65-25.773-97.03-32.507-98.2 16.406-.24 11.203-11.38 4.04-22.83 15.733-9.73 9.917-6.55 26.262-5.76 31.527 4.05 26.446 27.06 51.786 55.59 60.916 27.19 8.69 57.86 2.08 76.96-11.27 6.67-4.65 25.1-24.49 33.85-23.87 10.6.67 16.72-1.04 20.15-2.64 2.75-1.47 2.14-4.53-.86-3.24zm-37.77-23.63c-.07.367-.37.734-1.9 1.285-1.29.49-9.19 3.306-15.12-1.285-1.04-.796-2.09-1.592-1.96-2.51.24-1.837 5.38-3 9.61-2.51 4.9.551 9.67 3.367 9.37 5.02z" fill="#9FBC50"/><path d="M1579.8 1097.97c46.59 41.75 10.53 108.96 73.29 141.16 37.77 19.35 12.79 49.53 71.5 69.67 155.26 53.13 45.67-98.99 24.31-121.33-33-34.65-206.2-122.75-169.1-89.5z" fill="#1E1735"/><path d="M1576.99 1108.68c2.63-5.51 5.81-9.98 11.02-12.18.98-.43 6.18-2.64 11.57-.55 6.73 2.57 9.55 9.91 10.53 13.77 6.67 26.51-4.9 45.85-16.47 55.77-1.35 1.16-9.92 7.16-16.59-.55-10.59-12.37-8.02-39.55-.06-56.26z" fill="#EB9E6C"/><path d="M1524.58 949.575c-.49-5.081 1.53-9.305 4.77-12.304-1.59.857-3.3 1.469-5.2 1.775-6.43 1.163-17.45-.918-19.77-11.57-.92-9.428 6.42-14.08 9.61-15.611 4.16-2.02 8.08-2.142 11.26-1.591-4.04-1.776-7.28-5.081-8.32-10.04-1.59-15.917 17.69-22.344 27.85-15.794 1.78 1.102 4.1 3.183 5.45 6.55.06-12.366 16.04-20.997 27.86-13.957 8.87 5.326 9.12 16.283 2.63 23.017.24-.183.49-.306.8-.428 3.06-1.408 4.83-1.653 7.04-1.959.24-.061 6-.735 11.32 2.693 12.12 7.775 8.21 25.161-6.49 28.65-3.43.796-6.12.49-7.28.367-.37-.061-.74-.183-1.1-.306l1.65.919c11.75 7.774 7.77 24.854-6.61 28.098-3.86.857-9.8 1.041-15.86-3.367-.73-.55-3.06-2.632-4.35-5.264-.43-.918-.61-1.837-.73-2.816 0 6.917-5.33 13.835-14.27 15.427-4.77.918-17.57.244-20.26-12.489z" fill="#fff"/><path d="M1557.58 929.557c9.98-2.387 12.67-14.018 4.47-19.099-7.78-4.837-20.2.612-19.16 10.774 1.65 7.774 9.61 9.55 14.69 8.325z" fill="#FFBCB0"/><path d="M1524.21 939.106c12.62-2.326 19.78-17.324 9-25.711-.06-.061-8.87-6.55-19.16-1.53-3.18 1.591-10.47 6.183-9.61 15.61 2.33 10.713 13.35 12.795 19.77 11.631zM1593.46 929.068c14.69-3.489 18.61-20.936 6.49-28.65-5.33-3.428-11.09-2.754-11.33-2.693-2.2.306-3.98.489-7.04 1.959-1.96.918-3.37 2.693-5.21 3.795-.06.061-5.26 4.102-4.4 12.978.98 4.408 2.69 7.836 8.14 11.019.86.49 1.9.429 2.75.735 1.17.367 2.15 1.102 3.37 1.286 1.04.061 3.74.428 7.23-.429z" fill="#AE9AE3"/><path d="M1537.62 911.192c6.49-1.592 11.51-6.183 13.04-11.999.55-2.02.55-2.02-.18-5.387-.19-.918.12-1.898-.25-2.816-1.34-3.367-3.67-5.387-5.45-6.55-10.16-6.551-29.5-.123-27.85 15.794 2.08 9.55 12.12 13.039 20.69 10.958zM1580.05 958.207c14.39-3.244 18.36-20.385 6.61-28.099-10.29-6.795-26.63-1.469-28.22 12.55.73 2.265.43 4.775 1.47 6.979 1.22 2.632 3.61 4.713 4.34 5.264 6 4.286 11.94 4.163 15.8 3.306z" fill="#AE9AE3"/><path d="M1544.78 962.187c14.09-2.449 19.29-18.243 8.64-26.385-10.66-8.203-30.31-1.102-28.84 13.774 2.7 12.733 15.49 13.406 20.2 12.611zM1572.76 904.887c13.78-4.224 17.02-20.937 5.33-27.854-12.61-7.53-29.94 2.816-27.67 16.467 1.96 10.162 13.34 14.141 22.34 11.387z" fill="#AE9AE3"/><path d="M1561.13 1037.79c-.49-5.39 1.59-9.8 5.02-12.92-1.65.86-3.49 1.53-5.45 1.9-6.73 1.22-18.36-.98-20.81-12.18-.98-9.92 6.73-14.817 10.1-16.47 4.34-2.142 8.51-2.265 11.88-1.714-4.29-1.836-7.66-5.387-8.82-10.59-1.71-16.774 18.67-23.508 29.32-16.59 1.84 1.163 4.35 3.367 5.76 6.917.06-13.039 16.84-22.099 29.32-14.692 9.37 5.571 9.62 17.141 2.76 24.242.24-.183.55-.306.86-.428 3.24-1.531 5.08-1.714 7.4-2.02.25-.062 6.31-.735 11.94 2.816 12.8 8.141 8.63 26.509-6.79 30.179-3.62.86-6.49.49-7.66.37-.42-.06-.79-.19-1.16-.31.61.31 1.16.61 1.72.98 12.36 8.14 8.14 26.14-6.98 29.57-4.11.92-10.29 1.1-16.66-3.49-.79-.55-3.24-2.75-4.59-5.51-.43-.92-.67-1.96-.79-2.94 0 7.29-5.64 14.57-15.06 16.22-5.02.8-18.49.13-21.31-13.34z" fill="#fff"/><path d="M1595.78 1016.73c10.47-2.51 13.35-14.75 4.72-20.14-8.21-5.081-21.25.612-20.21 11.33 1.78 8.26 10.17 10.16 15.49 8.81z" fill="gold"/><path d="M1560.64 1026.77c13.22-2.45 20.75-18.18 9.43-27.059-.06-.061-9.37-6.917-20.14-1.591-3.37 1.652-11.02 6.55-10.1 16.47 2.51 11.2 14.08 13.46 20.81 12.18zM1633.56 1016.24c15.42-3.67 19.59-21.976 6.79-30.179-5.63-3.612-11.69-2.877-11.94-2.816-2.32.306-4.16.551-7.4 2.02-2.09.98-3.56 2.877-5.51 3.979-.07.062-5.51 4.286-4.66 13.656 1.04 4.65 2.82 8.2 8.57 11.57.92.55 1.96.42 2.94.73 1.23.37 2.27 1.16 3.55 1.35 1.17.24 3.98.55 7.66-.31z" fill="#D5C7F4"/><path d="M1574.78 997.447c6.86-1.653 12.06-6.49 13.72-12.611.55-2.082.55-2.082-.19-5.693-.18-.98.13-2.021-.3-3-1.41-3.551-3.92-5.693-5.76-6.918-10.71-6.917-31.04-.122-29.32 16.59 2.26 10.101 12.85 13.835 21.85 11.632zM1619.47 1046.85c15.13-3.43 19.35-21.43 6.98-29.57-10.83-7.16-28.04-1.53-29.75 13.23.8 2.38.43 5.01 1.53 7.34 1.35 2.76 3.8 4.96 4.59 5.51 6.37 4.59 12.55 4.47 16.65 3.49z" fill="#D5C7F4"/><path d="M1582.37 1051.07c14.82-2.57 20.27-19.16 9.13-27.79-11.21-8.63-31.84-1.16-30.37 14.51 2.82 13.47 16.29 14.14 21.24 13.28zM1611.76 990.774c14.51-4.469 17.88-21.977 5.63-29.323-13.28-7.897-31.46 2.938-29.08 17.324 2.02 10.713 14.02 14.937 23.45 11.999z" fill="#D5C7F4"/><path d="M1629.51 911.314c-.42 4.347 1.29 7.959 4.05 10.469-1.35-.735-2.82-1.225-4.41-1.531-5.45-.979-14.88.796-16.84 9.856-.79 8.02 5.45 11.999 8.21 13.346 3.55 1.714 6.85 1.836 9.61 1.407-3.43 1.531-6.19 4.347-7.1 8.571-1.35 13.59 15.12 19.039 23.75 13.468 1.47-.98 3.49-2.694 4.65-5.571.06 10.591 13.65 17.937 23.76 11.937 7.59-4.53 7.77-13.896 2.2-19.65.25.122.43.244.67.367 2.64 1.224 4.11 1.408 6 1.653.19 0 5.15.612 9.68-2.327 10.34-6.611 7.04-21.487-5.51-24.425a17.72 17.72 0 0 0-6.25-.306c-.3.061-.67.122-.98.245.49-.245.92-.49 1.41-.796 10.04-6.612 6.61-21.181-5.63-23.997-3.31-.735-8.33-.858-13.53 2.877-.61.428-2.63 2.204-3.74 4.469-.36.795-.55 1.591-.67 2.387 0-5.938-4.53-11.815-12.18-13.162-3.98-.734-14.88-.122-17.15 10.713z" fill="#fff"/><path d="M1657.62 928.392c8.51 2.081 10.83 11.937 3.79 16.283-6.67 4.163-17.2-.489-16.34-9.182 1.4-6.612 8.2-8.142 12.55-7.101z" fill="gold"/><path d="M1629.15 920.252c10.71 1.959 16.83 14.753 7.65 21.915-.06.062-7.59 5.632-16.35 1.286-2.69-1.347-8.93-5.326-8.2-13.345 2.02-9.061 11.39-10.836 16.9-9.856zM1688.23 928.821c12.55 3 15.85 17.815 5.51 24.426-4.59 2.939-9.49 2.326-9.68 2.326-1.89-.244-3.36-.428-6-1.652-1.71-.796-2.87-2.327-4.47-3.245-.06 0-4.46-3.489-3.79-11.08.86-3.796 2.26-6.673 6.98-9.367.73-.428 1.59-.367 2.39-.612.98-.306 1.83-.979 2.87-1.102.92-.122 3.25-.367 6.19.306z" fill="#FFBCB0"/><path d="M1640.6 944.064c5.51 1.347 9.79 5.265 11.14 10.224.43 1.714.43 1.714-.12 4.591-.19.796.06 1.653-.25 2.388-1.16 2.877-3.18 4.591-4.65 5.57-8.69 5.632-25.16.123-23.76-13.467 1.72-8.081 10.35-11.081 17.64-9.306zM1676.78 903.968c12.24 2.816 15.67 17.386 5.63 23.997-8.82 5.816-22.71 1.225-24.12-10.713.61-1.959.37-4.04 1.22-5.938 1.04-2.265 3.06-4.04 3.74-4.469 5.2-3.734 10.22-3.612 13.53-2.877z" fill="#FFBCB0"/><path d="M1646.72 900.6c12 2.082 16.41 15.55 7.35 22.528-9.07 6.979-25.84.919-24.62-11.753 2.33-10.897 13.23-11.509 17.27-10.775zM1670.53 949.453c11.76 3.612 14.51 17.814 4.53 23.752-10.77 6.428-25.53-2.387-23.57-14.018 1.72-8.693 11.39-12.122 19.04-9.734z" fill="#FFBCB0"/><path d="M1825 853.22c-.25 2.449.73 4.469 2.26 5.877-.73-.429-1.59-.674-2.45-.857-3.06-.551-8.32.428-9.43 5.509-.42 4.53 3.07 6.734 4.6 7.469 1.95.979 3.85 1.041 5.38.796-1.96.857-3.49 2.448-3.98 4.775-.79 7.591 8.45 10.651 13.35 7.529.86-.551 1.96-1.53 2.57-3.122 0 5.938 7.65 10.04 13.29 6.673 4.22-2.51 4.34-7.775 1.22-11.019.12.061.25.122.37.184 1.47.673 2.32.795 3.37.918.12 0 2.87.367 5.44-1.286 5.82-3.734 3.92-11.998-3.06-13.713a10.45 10.45 0 0 0-3.49-.183c-.18 0-.36.061-.55.122.25-.122.55-.306.8-.428 5.63-3.735 3.67-11.876-3.19-13.407-1.83-.428-4.65-.49-7.59 1.592-.36.245-1.47 1.224-2.08 2.51-.18.428-.3.857-.37 1.346 0-3.305-2.57-6.611-6.79-7.346-2.27-.367-8.39-.061-9.67 6.061z" fill="#fff"/><path d="M1840.73 862.769c4.78 1.163 6.06 6.673 2.14 9.122-3.73 2.326-9.61-.306-9.18-5.143.8-3.734 4.59-4.591 7.04-3.979z" fill="gold"/><path d="M1824.75 858.177c6 1.102 9.43 8.265 4.29 12.244-.06.061-4.23 3.122-9.13.734-1.53-.734-5.02-2.938-4.59-7.468 1.1-5.02 6.37-6.061 9.43-5.51zM1857.87 863.015c7.04 1.653 8.88 9.978 3.06 13.713-2.57 1.653-5.32 1.285-5.45 1.285-1.04-.122-1.89-.245-3.36-.918-.92-.428-1.59-1.286-2.51-1.775 0 0-2.51-1.959-2.08-6.183.49-2.143 1.28-3.734 3.91-5.265.43-.245.92-.184 1.35-.367.55-.184 1.04-.551 1.59-.612.55-.123 1.84-.306 3.49.122z" fill="#FFBCB0"/><path d="M1831.18 871.523c3.12.735 5.51 2.939 6.24 5.694.25.979.25.979-.06 2.571-.06.428.06.918-.12 1.347-.61 1.591-1.78 2.571-2.57 3.122-4.84 3.122-14.08.061-13.35-7.53.98-4.53 5.76-6.183 9.86-5.204zM1851.44 849.119c6.86 1.592 8.76 9.733 3.19 13.407-4.9 3.244-12.74.673-13.47-6 .37-1.102.18-2.265.67-3.306.61-1.285 1.72-2.265 2.08-2.509 2.88-2.082 5.7-2.021 7.53-1.592z" fill="#FFBCB0"/><path d="M1834.61 847.159c6.73 1.163 9.18 8.693 4.1 12.611-5.08 3.918-14.45.49-13.78-6.611 1.35-6.061 7.47-6.367 9.68-6zM1847.95 874.523c6.62 2.021 8.15 9.979 2.58 13.285-6 3.611-14.33-1.347-13.23-7.836.92-4.836 6.37-6.734 10.65-5.449z" fill="#FFBCB0"/><path d="M1618.07 883.46c.49-2.632 2.08-4.408 4.1-5.387-.92.183-1.84.245-2.82.183-3.36-.306-8.51-2.938-8.14-8.57.92-4.775 5.2-6.061 6.98-6.367 2.33-.428 4.28.062 5.82.796-1.78-1.469-2.88-3.55-2.7-6.183 1.47-8.142 11.94-8.57 16.04-3.856.74.795 1.59 2.142 1.78 4.04 1.77-6.122 10.96-8.142 15.79-2.939 3.68 3.918 2.21 9.367-1.96 11.815.13-.061.31-.061.43-.122 1.72-.245 2.63-.122 3.8.061.12 0 3.06.49 5.26 2.939 4.9 5.57.49 13.651-7.28 13.284a9.6 9.6 0 0 1-3.68-.857 1.437 1.437 0 0 1-.49-.306c.25.245.49.428.68.673 4.71 5.51.3 13.407-7.29 12.978-2.02-.122-4.96-.857-7.41-3.918-.3-.367-1.16-1.714-1.4-3.244-.06-.49-.06-.98 0-1.531-.98 3.428-4.6 6.122-9.25 5.632-2.51-.306-8.75-2.448-8.26-9.121z" fill="#fff"/><path d="M1637.23 878.196c5.26.245 8.26-5.142 4.96-8.815-3.19-3.49-10.1-2.572-11.02 2.632-.31 4.101 3.37 6.06 6.06 6.183z" fill="gold"/><path d="M1550.42 813.306c0-2.878-1.35-5.143-3.37-6.612.92.367 1.96.612 3 .735 3.67.306 9.73-1.531 10.41-7.591-.06-5.326-4.41-7.53-6.25-8.203-2.45-.919-4.65-.735-6.36-.245 2.14-1.225 3.79-3.245 4.1-6.122 0-8.999-11.21-11.509-16.53-7.224-.92.735-2.15 2.021-2.7 3.98-.73-6.918-10.16-10.836-16.4-6.245-4.66 3.49-4.17 9.612-.13 13.04-.12-.062-.3-.123-.49-.184-1.77-.612-2.81-.673-4.04-.673-.12 0-3.36-.062-6.18 2.142-6.37 5.02-3.18 14.57 5.26 15.672 1.96.245 3.49-.061 4.11-.245.24-.061.43-.122.61-.245-.31.184-.61.367-.86.612-6.12 5.02-2.94 14.325 5.33 15.366 2.2.245 5.51 0 8.69-2.755.37-.306 1.59-1.653 2.14-3.183.19-.551.25-1.041.25-1.592.37 3.857 3.8 7.469 8.88 7.836 2.63.184 9.73-.918 10.53-8.264z" fill="#fff"/><path d="M1530.83 803.999c-5.7-.795-7.9-7.101-3.62-10.468 4.11-3.183 11.33-.796 11.33 4.959-.43 4.469-4.78 5.938-7.71 5.509z" fill="#FFBCB0"/><path d="M1550.05 807.428c-7.16-.551-12.06-8.57-6.49-13.896.06-.061 4.59-4.163 10.65-1.959 1.9.674 6.25 2.877 6.25 8.203-.68 6.183-6.74 7.959-10.41 7.652zM1510.68 805.775c-8.44-1.102-11.63-10.652-5.26-15.672 2.82-2.204 6.06-2.143 6.18-2.143 1.29.062 2.27.062 4.04.674 1.17.428 2.02 1.347 3.13 1.836.06 0 3.18 2.02 3.18 7.04-.31 2.51-1.04 4.53-3.92 6.612-.43.306-1.04.367-1.53.551-.61.245-1.16.734-1.84.918-.49.122-1.96.429-3.98.184z" fill="gold"/><path d="M1540.93 792.613c-3.74-.551-6.8-2.816-7.96-5.938-.43-1.102-.43-1.102-.25-3.061.06-.551-.18-1.041 0-1.592.55-1.958 1.78-3.244 2.7-3.979 5.32-4.285 16.53-1.775 16.53 7.224-.68 5.448-6.12 8.019-11.02 7.346zM1519.87 821.323c-8.21-1.041-11.45-10.346-5.33-15.365 5.39-4.408 14.82-2.327 16.53 5.448-.31 1.285.06 2.693-.43 3.979-.55 1.53-1.77 2.877-2.14 3.183-3.12 2.755-6.43 3-8.63 2.755z" fill="gold"/><path d="M1539.83 821.569c-8.02-.55-11.82-9.121-6.37-14.324 5.51-5.204 16.9-2.327 16.96 6.06-.8 7.346-7.9 8.448-10.59 8.264zM1520.91 791.083c-7.96-1.592-10.72-10.713-4.59-15.305 6.61-4.897 16.89-.122 16.4 7.652-.49 5.755-6.61 8.632-11.81 7.653z" fill="gold"/><path d="M1650.51 1073.48c.31 1.65 4.35 2.88 5.39 3.06 3.43.61 7.59.06 12.25-.8 2.38 2.88 2.57 5.33 4.04 8.15 3 5.44 4.71 3.61 4.83 3.42 1.9-2.57-1.59-9.61-4.4-12.42 2.57-.49 5.2-1.04 7.89-1.53.62-.13 1.29-.19 1.96-.19.19.19.43.43.61.68 5.51 6.85 4.29 10.83 5.82 16.1 2.39 8.14 5.27 6.18 5.45 6 3.37-3 .55-13.84-2.51-18.19-.55-.73-1.59-2.2-3.12-3.67 14.63 4.35 30.48 23.14 15.61 33.79-3.43 2.45 1.16 4.35-.06 10.35-1.04 5.08-6.74 7.53-8.51 8.39-9 4.28-21.74 2.57-30.55-4.35-8.45-6.55-12.86-17.45-12.74-26.14.06-3.06 2.27-12.92.25-15.49-2.45-3.12-3.19-5.39-3.43-6.79-.06-1.11 1.04-1.6 1.22-.37zm15.31 6.67c-.12.12-.12.25 0 .86.12.49.92 3.55 3.55 4.41.43.12.92.3 1.16.06.49-.49-.18-2.27-1.22-3.49-1.16-1.41-3.06-2.27-3.49-1.84z" fill="#7CA417"/><path d="M1692.14 1130.47c-.3-2.87.86-5.26 2.7-6.91-.92.49-1.9.79-2.94 1.04-3.61.67-9.86-.55-11.14-6.55-.49-5.33 3.61-7.96 5.39-8.82 2.32-1.16 4.53-1.22 6.36-.92-2.26-.98-4.1-2.88-4.71-5.69-.92-9 9.98-12.61 15.73-8.88.98.61 2.33 1.78 3.06 3.68.06-6.98 9.06-11.88 15.74-7.9 5.02 3 5.14 9.18 1.47 12.98.12-.06.3-.19.42-.25 1.72-.79 2.76-.92 3.98-1.1.13 0 3.37-.43 6.43 1.53 6.86 4.35 4.66 14.2-3.67 16.16-1.96.49-3.49.31-4.1.19-.25 0-.43-.13-.61-.19.3.19.61.31.91.55 6.62 4.41 4.35 14.02-3.73 15.86-2.2.49-5.51.55-8.94-1.9-.43-.31-1.71-1.47-2.45-2.94-.24-.49-.37-1.04-.43-1.59 0 3.92-3 7.84-8.08 8.69-2.63.49-9.85.13-11.39-7.04z" fill="#fff"/><path d="M1710.76 1119.15c5.63-1.35 7.16-7.9 2.51-10.78-4.41-2.75-11.39.31-10.84 6.06.98 4.41 5.45 5.45 8.33 4.72z" fill="gold"/><path d="M1691.9 1124.53c7.1-1.28 11.14-9.73 5.08-14.5-.06-.07-5.02-3.74-10.77-.86-1.78.86-5.94 3.49-5.39 8.81 1.22 6.06 7.47 7.23 11.08 6.55zM1730.96 1118.9c8.26-1.96 10.47-11.81 3.67-16.16-3-1.9-6.24-1.53-6.43-1.53-1.22.18-2.26.31-3.98 1.1-1.1.55-1.89 1.53-2.93 2.15 0 0-2.94 2.32-2.51 7.34.55 2.51 1.53 4.41 4.59 6.18.49.31 1.04.25 1.59.43.67.19 1.22.61 1.9.74.61 0 2.14.18 4.1-.25z" fill="#AE9AE3"/><path d="M1699.49 1108.8c3.67-.92 6.49-3.49 7.35-6.73.3-1.1.3-1.1-.06-3.06-.13-.55.06-1.1-.13-1.59-.73-1.9-2.08-3.06-3.06-3.68-5.75-3.73-16.65-.06-15.73 8.88 1.1 5.39 6.79 7.35 11.63 6.18zM1723.43 1135.31c8.08-1.84 10.35-11.51 3.73-15.86-5.81-3.85-15.06-.79-15.91 7.1.42 1.29.24 2.7.79 3.92.74 1.47 2.02 2.7 2.45 2.94 3.43 2.45 6.74 2.39 8.94 1.9z" fill="#AE9AE3"/><path d="M1703.53 1137.57c7.96-1.34 10.9-10.28 4.9-14.87-6-4.65-17.08-.61-16.29 7.77 1.54 7.17 8.76 7.53 11.39 7.1zM1719.33 1105.25c7.77-2.39 9.61-11.81 3-15.73-7.1-4.23-16.9 1.59-15.61 9.3 1.1 5.76 7.53 7.96 12.61 6.43z" fill="#AE9AE3"/><defs><filter id="a" x=".517" y=".182" width="1250.19" height="1250.19" filterUnits="userSpaceOnUse" color-interpolation-filters="sRGB"><feFlood flood-opacity="0" result="BackgroundImageFix"/><feBlend in="SourceGraphic" in2="BackgroundImageFix" result="shape"/><feGaussianBlur stdDeviation="184" result="effect1_foregroundBlur_5606_2"/></filter><filter id="b" x="974.813" y="781.419" width="1250.19" height="1250.19" filterUnits="userSpaceOnUse" color-interpolation-filters="sRGB"><feFlood flood-opacity="0" result="BackgroundImageFix"/><feBlend in="SourceGraphic" in2="BackgroundImageFix" result="shape"/><feGaussianBlur stdDeviation="184" result="effect1_foregroundBlur_5606_2"/></filter><filter id="c" x="1255.25" y="95.78" width="1417.23" height="1417.23" filterUnits="userSpaceOnUse" color-interpolation-filters="sRGB"><feFlood flood-opacity="0" result="BackgroundImageFix"/><feBlend in="SourceGraphic" in2="BackgroundImageFix" result="shape"/><feGaussianBlur stdDeviation="184" result="effect1_foregroundBlur_5606_2"/></filter></defs></svg>