<svg width="102" height="211" fill="none" xmlns="http://www.w3.org/2000/svg"><path d="M89.428 207.421c0 1.774-16.75 3.194-37.473 3.194-20.724 0-37.473-1.42-37.473-3.194 0-1.775 16.749-3.194 37.473-3.194s37.473 1.419 37.473 3.194z" fill="#F4F2ED"/><path d="M11.86 78.166S-1.857 76.296.762 73.302c2.62-2.993 9.479 1.996 9.479 1.996s-7.483-7.109-5.114-9.354c2.37-2.245 7.358 7.234 7.358 7.234s-1.371-8.98 1.871-8.481c3.243.374 2.869 11.848.998 12.596-1.996.873-3.492.873-3.492.873z" fill="#E8A0A2"/><path d="m31.815 104.856-4.365 2.12s-10.85-.998-17.585-8.356c-5.363-5.986-6.734-16.213 2.869-21.576 9.603-5.363 17.71-4.24 21.95 7.358 3.866 10.601.748 18.708.748 18.708l-3.617 1.746z" fill="#399648"/><path d="M13.981 76.42c8.605-3.991 15.714-2.245 19.705 8.605 3.866 10.601.748 18.707.748 18.707l1.248-.623s3.117-8.107-.749-18.707c-4.24-11.225-11.848-12.722-20.952-7.982z" fill="#497E44"/><path d="M11.362 82.657c.374.873.374 1.746 0 1.995-.374.25-1.123-.374-1.497-1.247-.374-.873-.374-1.746 0-1.995.374-.125.998.374 1.497 1.247zM9.242 88.393c.374.873.374 1.746 0 1.996s-1.123-.374-1.497-1.247c-.374-.873-.374-1.746 0-1.996.499-.125 1.123.374 1.497 1.247zM14.854 87.645c.374.873.374 1.746 0 1.996s-1.122-.374-1.497-1.247c-.374-.873-.374-1.747 0-1.996.375-.125 1.123.374 1.497 1.247zM18.096 81.16c.375.873.375 1.746 0 1.995-.374.25-1.122-.374-1.496-1.247-.374-.873-.374-1.746 0-1.995.374-.125 1.122.374 1.496 1.247zM21.09 87.27c.374.874.374 1.747 0 1.996-.374.25-1.123-.374-1.497-1.247-.374-.873-.374-1.746 0-1.995.374-.125.998.374 1.497 1.247zM22.462 77.543c.374.873.374 1.746 0 1.996-.375.25-1.123-.374-1.497-1.248-.374-.873-.374-1.745 0-1.995s1.122.374 1.497 1.247zM25.58 83.155c.374.873.374 1.746 0 1.996-.375.25-1.123-.374-1.497-1.247-.374-.873-.374-1.746 0-1.996.499-.25 1.122.374 1.497 1.247zM28.074 77.918c.374.873.374 1.746 0 1.995-.374.25-1.123-.374-1.497-1.247-.374-.873-.374-1.746 0-1.995.374-.125 1.123.374 1.497 1.247zM31.192 83.03c.374.873.374 1.746 0 1.996s-1.123-.374-1.497-1.247c-.374-.873-.374-1.746 0-1.996s1.123.374 1.497 1.247zM34.684 95.252c.374.873.374 1.746 0 1.996S33.56 96.874 33.187 96c-.374-.873-.374-1.746 0-1.996.374-.124 1.123.374 1.497 1.247zM10.988 95.129c.374.873.374 1.746 0 1.995-.374.25-1.123-.374-1.497-1.247-.374-.873-.374-1.746 0-1.995.374-.25 1.123.374 1.497 1.247zM16.725 93.382c.374.873.374 1.746 0 1.995-.375.25-1.123-.374-1.497-1.247-.374-.873-.374-1.746 0-1.995.374-.125.998.374 1.497 1.247zM16.35 100.491c.375.873.375 1.746 0 1.995-.374.25-1.122-.374-1.496-1.247-.374-.873-.374-1.746 0-1.995.374-.25 1.122.374 1.496 1.247zM20.341 97.124c.375.873.375 1.746 0 1.995-.374.25-1.122-.374-1.496-1.247-.374-.873-.374-1.746 0-1.996.499-.124 1.122.374 1.497 1.248zM24.332 91.387c.375.873.375 1.746 0 1.995-.374.25-1.122-.374-1.496-1.247-.374-.873-.374-1.746 0-1.995.374-.25.998.374 1.496 1.247zM28.947 89.89c.374.873.374 1.746 0 1.996-.374.249-1.123-.374-1.497-1.248-.374-.873-.374-1.746 0-1.995.374-.125.998.374 1.497 1.247zM25.83 98.995c.373.873.373 1.746 0 1.995-.375.249-1.123-.374-1.497-1.247-.375-.873-.375-1.746 0-1.996.374-.249.997.375 1.496 1.248zM34.434 89.765c.374.873.374 1.746 0 1.996-.374.249-1.122-.375-1.496-1.248-.375-.873-.375-1.746 0-1.995.374-.25 1.122.374 1.496 1.247zM30.693 97.373c.374.873.374 1.746 0 1.995-.374.25-1.123-.374-1.497-1.247-.374-.873-.374-1.746 0-1.995.374-.125 1.123.374 1.497 1.247zM30.319 102.486c.374.873.374 1.746 0 1.996-.374.249-1.123-.374-1.497-1.247-.374-.873-.374-1.746 0-1.996.374-.249.998.374 1.497 1.247zM23.085 102.611c.374.873.374 1.746 0 1.996-.374.249-1.122-.374-1.497-1.247-.374-.873-.374-1.746 0-1.996.375-.125.998.374 1.497 1.247z" fill="#B1D8B0"/><path d="M33.312 17.804s-17.834-.873-14.841-4.989c2.868-4.116 12.471 1.497 12.471 1.497S20.591 5.956 23.46 2.838c2.869-3.118 10.352 8.605 10.352 8.605S31.067.094 35.183.343c4.115.125 4.988 14.842 2.619 16.213-2.495 1.123-4.49 1.248-4.49 1.248z" fill="#E8A0A2"/><path d="m61.872 49.98-5.363 3.118s-14.093-.125-23.447-8.855c-7.607-7.108-10.476-20.204 1.372-28.06 11.848-7.983 22.2-7.484 29.06 7.108 6.235 13.22 2.992 23.945 2.992 23.945l-4.614 2.744z" fill="#399648"/><path d="M35.806 15.31c10.6-5.987 19.955-4.49 26.19 8.854 6.236 13.22 2.994 23.946 2.994 23.946l1.496-.873s3.118-10.85-2.993-23.946C57.008 9.323 47.03 8.326 35.806 15.31z" fill="#497E44"/><path d="M33.187 23.665c.624 1.122.748 2.245.25 2.494-.5.25-1.497-.25-2.12-1.372-.624-1.122-.749-2.244-.25-2.494.499-.374 1.497.25 2.12 1.372zM31.192 31.273c.623 1.122.748 2.244.25 2.494-.5.25-1.497-.25-2.121-1.372-.624-1.123-.748-2.245-.25-2.494.5-.25 1.497.374 2.12 1.372zM38.3 29.651c.624 1.123.749 2.245.25 2.495-.5.249-1.497-.25-2.12-1.372-.624-1.123-.749-2.245-.25-2.495.5-.25 1.497.375 2.12 1.372zM41.668 20.921c.623 1.123.748 2.245.25 2.494-.5.25-1.497-.25-2.12-1.371-.624-1.123-.75-2.245-.25-2.495.623-.25 1.496.374 2.12 1.372zM46.158 28.53c.623 1.122.748 2.244.25 2.493-.5.25-1.498-.249-2.121-1.371-.624-1.123-.748-2.245-.25-2.495.624-.374 1.497.25 2.12 1.372zM46.906 15.808c.623 1.122.748 2.245.25 2.494-.5.25-1.497-.25-2.12-1.372-.624-1.122-.75-2.245-.25-2.494.623-.374 1.496.25 2.12 1.372zM51.645 22.667c.624 1.122.748 2.245.25 2.494-.5.25-1.497-.25-2.12-1.372-.624-1.122-.749-2.245-.25-2.494.499-.374 1.497.25 2.12 1.372zM54.264 15.808c.624 1.122.748 2.245.25 2.494-.5.25-1.497-.25-2.12-1.372-.624-1.122-.749-2.245-.25-2.494.499-.374 1.372.25 2.12 1.372zM58.754 21.919c.623 1.122.748 2.245.25 2.494-.5.25-1.497-.25-2.12-1.372-.624-1.122-.75-2.244-.25-2.494.499-.25 1.496.25 2.12 1.372zM64.616 37.26c.623 1.122.748 2.244.25 2.494-.5.25-1.498-.25-2.121-1.372-.624-1.123-.748-2.245-.25-2.494.5-.375 1.497.249 2.12 1.371zM34.185 39.628c.623 1.123.748 2.245.25 2.495-.5.249-1.497-.25-2.12-1.372-.624-1.123-.75-2.245-.25-2.495.499-.249 1.372.375 2.12 1.372zM41.294 36.885c.623 1.123.748 2.245.25 2.494-.5.25-1.497-.249-2.121-1.371-.624-1.123-.748-2.245-.25-2.495.5-.374 1.372.25 2.12 1.372zM41.543 45.99c.624 1.122.748 2.244.25 2.494-.5.25-1.497-.25-2.12-1.372-.624-1.122-.749-2.245-.25-2.494.624-.375 1.497.25 2.12 1.372zM46.407 41.25c.624 1.122.748 2.245.25 2.494-.5.25-1.497-.25-2.12-1.372-.624-1.122-.749-2.245-.25-2.494.499-.374 1.496.25 2.12 1.372zM50.772 33.393c.624 1.122.748 2.245.25 2.494-.5.25-1.497-.25-2.12-1.372-.624-1.122-.749-2.245-.25-2.494.623-.25 1.496.25 2.12 1.372zM56.634 31.023c.623 1.123.748 2.245.25 2.495-.5.25-1.498-.25-2.121-1.372-.624-1.123-.748-2.245-.25-2.494.5-.375 1.372.249 2.12 1.371zM53.516 42.996c.623 1.123.748 2.245.25 2.494-.5.25-1.497-.249-2.12-1.371-.624-1.123-.75-2.245-.25-2.495.499-.25 1.496.374 2.12 1.372zM63.743 30.15c.623 1.123.748 2.245.249 2.494-.499.25-1.497-.25-2.12-1.371-.624-1.123-.748-2.245-.25-2.495.5-.25 1.497.374 2.12 1.372zM59.752 40.377c.623 1.122.748 2.245.25 2.494-.5.25-1.498-.25-2.121-1.372-.624-1.122-.748-2.245-.25-2.494.5-.25 1.372.374 2.12 1.372zM59.752 46.987c.623 1.122.748 2.245.25 2.494-.5.25-1.498-.25-2.121-1.372-.624-1.122-.748-2.245-.25-2.494.5-.25 1.372.374 2.12 1.372zM50.398 47.985c.624 1.122.748 2.245.25 2.494-.5.25-1.497-.25-2.12-1.372-.624-1.122-.749-2.245-.25-2.494.499-.25 1.497.25 2.12 1.372z" fill="#B1D8B0"/><path d="m59.502 102.111-7.358-4.49s-9.104-17.46-4.49-34.92c3.742-14.093 17.96-26.19 35.669-16.837 17.585 9.479 23.821 22.699 10.227 40.658-12.222 16.337-27.687 19.455-27.687 19.455l-6.36-3.866z" fill="#399648"/><path d="M85.194 47.11C99.66 56.34 103.9 68.812 91.554 85.4c-12.222 16.337-27.687 19.455-27.687 19.455l1.996 1.247s15.465-3.242 27.687-19.455c12.97-17.46 7.732-30.306-8.356-39.535z" fill="#497E44"/><path d="M67.484 48.858c-.624 1.122-1.621 1.746-2.12 1.372-.5-.374-.374-1.497.25-2.495.623-1.122 1.62-1.746 2.12-1.372.498.25.374 1.372-.25 2.495zM72.473 53.97c-.624 1.123-1.622 1.747-2.12 1.373-.5-.375-.375-1.497.249-2.495.623-1.122 1.621-1.746 2.12-1.372.499.25.374 1.372-.25 2.495zM59.128 53.223c-.623 1.122-1.621 1.746-2.12 1.371-.499-.374-.374-1.496.25-2.494.623-1.122 1.62-1.746 2.12-1.372.498.25.374 1.372-.25 2.495zM64.74 57.587c-.623 1.123-1.621 1.746-2.12 1.372-.499-.374-.374-1.496.25-2.494.623-1.123 1.62-1.746 2.12-1.372.499.25.499 1.372-.25 2.494zM77.337 48.11c-.624 1.121-1.622 1.745-2.12 1.371-.5-.374-.375-1.497.249-2.494.623-.998 1.621-1.746 2.12-1.372.499.374.374 1.496-.25 2.494zM69.604 63.075c-.623 1.123-1.621 1.746-2.12 1.372-.499-.374-.374-1.497.25-2.494.623-1.123 1.62-1.746 2.12-1.372.499.25.374 1.372-.25 2.494zM81.078 53.846c-.624 1.123-1.621 1.746-2.12 1.372-.5-.374-.374-1.497.25-2.494.623-1.123 1.62-1.746 2.12-1.372.498.374.498 1.497-.25 2.494zM87.813 54.594c-.624 1.123-1.621 1.746-2.12 1.372-.5-.374-.374-1.496.249-2.494.624-1.123 1.621-1.746 2.12-1.372.5.25.5 1.372-.25 2.494zM78.958 61.953c-.624 1.122-1.621 1.746-2.12 1.372-.5-.375-.374-1.497.25-2.495.623-1.122 1.62-1.746 2.12-1.372.498.375.498 1.497-.25 2.495zM93.3 60.456c-.623 1.122-1.621 1.746-2.12 1.372-.499-.374-.374-1.497.25-2.495.623-1.122 1.62-1.746 2.12-1.371.499.374.374 1.496-.25 2.494zM74.343 69.56c-.623 1.123-1.621 1.746-2.12 1.372-.499-.374-.374-1.496.25-2.494.623-1.122 1.62-1.746 2.12-1.372.499.374.499 1.497-.25 2.495zM86.067 64.197c-.624 1.122-1.621 1.746-2.12 1.372-.5-.374-.375-1.497.249-2.495.624-1.122 1.621-1.745 2.12-1.371.5.374.5 1.496-.25 2.494zM82.2 71.68c-.623 1.123-1.62 1.746-2.12 1.372-.498-.374-.374-1.496.25-2.494.623-1.123 1.621-1.746 2.12-1.372.499.25.374 1.372-.25 2.494zM91.928 69.81c-.623 1.122-1.621 1.745-2.12 1.371-.499-.374-.374-1.497.25-2.494.623-1.123 1.62-1.746 2.12-1.372.499.374.374 1.496-.25 2.494zM98.538 69.81c-.623 1.122-1.621 1.745-2.12 1.371-.499-.374-.374-1.497.25-2.494.623-1.123 1.62-1.746 2.12-1.372.499.25.499 1.372-.25 2.494zM86.316 77.667c-.623 1.122-1.621 1.746-2.12 1.372-.499-.374-.374-1.497.25-2.495.623-1.122 1.62-1.745 2.12-1.371.499.374.374 1.496-.25 2.494zM95.046 77.667c-.623 1.122-1.621 1.746-2.12 1.372-.499-.374-.374-1.497.25-2.495.623-1.122 1.62-1.745 2.12-1.371.499.249.499 1.371-.25 2.494zM90.681 85.025c-.623 1.122-1.621 1.746-2.12 1.372-.499-.375-.374-1.497.25-2.495.623-1.122 1.62-1.746 2.12-1.372.499.25.374 1.372-.25 2.495zM54.264 59.084c-.623 1.123-1.621 1.746-2.12 1.372-.499-.374-.374-1.497.25-2.494.623-1.123 1.62-1.746 2.12-1.372.498.374.374 1.496-.25 2.494zM58.754 64.197c-.624 1.122-1.621 1.746-2.12 1.372-.5-.374-.374-1.497.25-2.495.623-1.122 1.62-1.745 2.12-1.371.498.25.373 1.371-.25 2.494zM52.02 68.313c-.624 1.123-1.622 1.746-2.12 1.372-.5-.374-.375-1.497.249-2.494.623-1.123 1.62-1.746 2.12-1.372.499.25.374 1.372-.25 2.494zM64.616 69.186c-.624 1.122-1.622 1.746-2.12 1.372-.5-.374-.375-1.497.249-2.494.623-1.123 1.621-1.746 2.12-1.372.499.374.374 1.372-.25 2.494zM56.634 73.8c-.624 1.123-1.622 1.746-2.12 1.372-.5-.374-.375-1.496.249-2.494.623-1.123 1.621-1.746 2.12-1.372.499.25.374 1.372-.25 2.494zM52.144 81.159c-.623 1.122-1.621 1.746-2.12 1.371-.499-.374-.374-1.496.25-2.494.623-1.122 1.62-1.746 2.12-1.372.498.25.374 1.372-.25 2.495zM63.119 75.796c-.624 1.122-1.621 1.746-2.12 1.372-.5-.374-.375-1.497.25-2.495.623-1.122 1.62-1.746 2.12-1.371.498.374.373 1.496-.25 2.494zM72.223 76.045c-.623 1.123-1.621 1.746-2.12 1.372-.499-.374-.374-1.497.25-2.494.623-1.123 1.62-1.746 2.12-1.372.499.25.374 1.372-.25 2.494zM77.087 80.036c-.623 1.123-1.621 1.746-2.12 1.372-.499-.374-.374-1.496.25-2.494.623-1.123 1.62-1.746 2.12-1.372.498.25.374 1.372-.25 2.494zM64.99 83.03c-.624 1.122-1.622 1.745-2.12 1.371-.5-.374-.375-1.497.249-2.494.623-1.123 1.621-1.746 2.12-1.372.499.25.374 1.372-.25 2.494zM81.203 86.023c-.624 1.122-1.621 1.746-2.12 1.372-.5-.374-.374-1.497.249-2.495.624-1.122 1.621-1.746 2.12-1.372.5.375.374 1.372-.25 2.495zM70.228 87.27c-.624 1.122-1.621 1.746-2.12 1.371-.5-.374-.374-1.496.25-2.494.623-1.122 1.62-1.746 2.12-1.372.498.374.373 1.497-.25 2.495zM83.697 92.258c-.624 1.123-1.621 1.746-2.12 1.372-.499-.374-.374-1.497.25-2.494.623-1.123 1.62-1.746 2.12-1.372.498.25.374 1.372-.25 2.494zM73.096 93.88c-.623 1.122-1.621 1.746-2.12 1.372-.499-.374-.374-1.497.25-2.495.623-1.122 1.62-1.746 2.12-1.371.498.25.374 1.371-.25 2.494zM59.003 82.656c-.623 1.122-1.62 1.745-2.12 1.371-.499-.374-.374-1.496.25-2.494.623-1.122 1.621-1.746 2.12-1.372.499.25.374 1.372-.25 2.495zM61.622 92.757c-.623 1.122-1.621 1.746-2.12 1.372-.499-.375-.374-1.497.25-2.495.623-1.122 1.62-1.746 2.12-1.371.499.374.374 1.496-.25 2.494zM78.21 95.875c-.624 1.122-1.622 1.746-2.12 1.372-.5-.374-.375-1.497.249-2.495.624-1.122 1.621-1.746 2.12-1.371.499.249.374 1.371-.25 2.494zM54.638 89.889c-.623 1.122-1.621 1.746-2.12 1.372-.499-.374-.374-1.497.25-2.495.623-1.122 1.62-1.746 2.12-1.372.499.25.374 1.372-.25 2.495zM67.36 98.245c-.624 1.122-1.622 1.746-2.12 1.372-.5-.375-.375-1.497.249-2.495.623-1.122 1.62-1.746 2.12-1.372.499.25.374 1.372-.25 2.495z" fill="#B1D8B0"/><path d="M56.883 164.969H46.657s-19.955-12.097-26.066-32.551c-4.864-16.587 2.12-37.664 25.691-39.036 23.696-1.372 38.163 8.231 35.42 34.796-2.37 24.07-16.089 36.791-16.089 36.791h-8.73z" fill="#399648"/><path d="M49.15 93.257c20.33.5 32.302 10.476 29.933 34.796-2.37 24.07-16.089 36.791-16.089 36.791h2.869s13.594-12.721 16.088-36.791c2.494-25.442-10.85-35.17-32.8-34.796z" fill="#497E44"/><path d="M32.19 106.103c0 1.496-.624 2.744-1.372 2.744-.749 0-1.372-1.248-1.372-2.744 0-1.497.623-2.744 1.372-2.744.748 0 1.372 1.247 1.372 2.744zM40.42 108.098c0 1.497-.623 2.744-1.371 2.744-.749 0-1.372-1.247-1.372-2.744 0-1.496.623-2.743 1.372-2.743.873.124 1.372 1.247 1.372 2.743zM26.452 115.582c0 1.496-.623 2.744-1.372 2.744-.748 0-1.371-1.248-1.371-2.744 0-1.497.623-2.744 1.372-2.744.748 0 1.371 1.247 1.371 2.744zM34.808 116.454c0 1.497-.623 2.744-1.371 2.744-.749 0-1.372-1.247-1.372-2.744 0-1.496.623-2.744 1.372-2.744.748.125 1.371 1.248 1.371 2.744zM41.793 99.244c0 1.496-.624 2.744-1.372 2.744-.749 0-1.372-1.248-1.372-2.744 0-1.497.623-2.744 1.372-2.744.748.125 1.372 1.247 1.372 2.744zM43.04 119.198c0 1.497-.624 2.744-1.372 2.744-.748 0-1.372-1.247-1.372-2.744 0-1.496.623-2.743 1.372-2.743.873 0 1.372 1.247 1.372 2.743zM49.15 102.735c0 1.497-.623 2.744-1.371 2.744s-1.372-1.247-1.372-2.744c0-1.496.624-2.743 1.372-2.743.748.124 1.372 1.247 1.372 2.743zM56.384 99.244c0 1.496-.623 2.744-1.371 2.744-.749 0-1.372-1.248-1.372-2.744 0-1.497.623-2.744 1.372-2.744.748.125 1.371 1.247 1.371 2.744zM52.02 112.339c0 1.496-.624 2.744-1.373 2.744-.748 0-1.371-1.248-1.371-2.744 0-1.497.623-2.744 1.371-2.744.749 0 1.372 1.247 1.372 2.744zM65.613 101.987c0 1.497-.623 2.744-1.372 2.744-.748 0-1.371-1.247-1.371-2.744 0-1.496.623-2.743 1.371-2.743.749 0 1.372 1.247 1.372 2.743zM52.02 122.815c0 1.497-.624 2.744-1.373 2.744-.748 0-1.371-1.247-1.371-2.744 0-1.496.623-2.744 1.371-2.744.749 0 1.372 1.248 1.372 2.744zM60.625 110.218c0 1.497-.624 2.744-1.372 2.744-.748 0-1.372-1.247-1.372-2.744 0-1.496.623-2.744 1.372-2.744.748 0 1.372 1.248 1.372 2.744zM59.876 122.815c.758 0 1.372-1.229 1.372-2.744 0-1.515-.614-2.744-1.372-2.744-.757 0-1.371 1.229-1.371 2.744 0 1.515.614 2.744 1.371 2.744zM69.854 112.339c0 1.496-.624 2.744-1.372 2.744-.748 0-1.372-1.248-1.372-2.744 0-1.497.624-2.744 1.372-2.744.873 0 1.372 1.247 1.372 2.744zM76.588 108.098c0 1.497-.623 2.744-1.372 2.744-.748 0-1.371-1.247-1.371-2.744 0-1.496.623-2.743 1.371-2.743.873.124 1.372 1.247 1.372 2.743zM68.98 123.688c0 1.497-.623 2.744-1.371 2.744s-1.372-1.247-1.372-2.744c0-1.496.624-2.744 1.372-2.744.748.125 1.372 1.248 1.372 2.744zM77.96 118.325c0 1.496-.623 2.743-1.372 2.743-.748 0-1.372-1.247-1.372-2.743 0-1.497.624-2.744 1.372-2.744.749 0 1.372 1.247 1.372 2.744zM77.96 128.427c0 1.497-.623 2.744-1.372 2.744-.748 0-1.372-1.247-1.372-2.744 0-1.496.624-2.743 1.372-2.743.749 0 1.372 1.247 1.372 2.743zM25.08 124.686c0 1.496-.623 2.743-1.371 2.743-.749 0-1.372-1.247-1.372-2.743 0-1.497.623-2.744 1.372-2.744.873 0 1.372 1.247 1.372 2.744zM32.688 126.93c0 1.496-.623 2.744-1.372 2.744-.748 0-1.371-1.248-1.371-2.744 0-1.497.623-2.744 1.372-2.744.873 0 1.371 1.247 1.371 2.744zM28.573 135.286c0 1.497-.624 2.744-1.372 2.744-.749 0-1.372-1.247-1.372-2.744 0-1.496.623-2.743 1.372-2.743.748 0 1.372 1.247 1.372 2.743zM41.793 128.427c0 1.497-.624 2.744-1.372 2.744-.749 0-1.372-1.247-1.372-2.744 0-1.496.623-2.743 1.372-2.743.748 0 1.372 1.247 1.372 2.743zM35.182 140.774c.758 0 1.372-1.228 1.372-2.743 0-1.516-.614-2.744-1.372-2.744-.757 0-1.371 1.228-1.371 2.744 0 1.515.614 2.743 1.371 2.743zM36.554 148.132c0 1.497-.623 2.744-1.372 2.744-.748 0-1.371-1.247-1.371-2.744s.623-2.744 1.371-2.744c.749.125 1.372 1.247 1.372 2.744zM44.411 136.035c0 1.497-.623 2.744-1.371 2.744-.749 0-1.372-1.247-1.372-2.744 0-1.496.623-2.744 1.372-2.744.748.125 1.371 1.248 1.371 2.744zM53.765 130.672c0 1.496-.623 2.743-1.372 2.743-.748 0-1.371-1.247-1.371-2.743 0-1.497.623-2.744 1.371-2.744.749 0 1.372 1.247 1.372 2.744zM61.123 131.795c0 1.496-.623 2.744-1.371 2.744-.749 0-1.372-1.248-1.372-2.744 0-1.497.623-2.744 1.372-2.744.873 0 1.371 1.247 1.371 2.744zM50.648 142.271c0 1.497-.624 2.744-1.372 2.744-.749 0-1.372-1.247-1.372-2.744s.623-2.744 1.372-2.744c.748 0 1.371 1.247 1.371 2.744zM68.98 135.286c0 1.497-.623 2.744-1.371 2.744s-1.372-1.247-1.372-2.744c0-1.496.624-2.743 1.372-2.743.748 0 1.372 1.247 1.372 2.743zM58.63 143.393c0 1.497-.624 2.744-1.373 2.744-.748 0-1.371-1.247-1.371-2.744s.623-2.744 1.371-2.744c.749 0 1.372 1.247 1.372 2.744zM75.341 140.026c0 1.496-.623 2.743-1.372 2.743-.748 0-1.372-1.247-1.372-2.743 0-1.497.624-2.744 1.372-2.744.749.125 1.372 1.247 1.372 2.744zM65.613 148.132c0 1.497-.623 2.744-1.372 2.744-.748 0-1.371-1.247-1.371-2.744s.623-2.744 1.371-2.744c.749.125 1.372 1.247 1.372 2.744zM44.411 145.513c0 1.497-.623 2.744-1.371 2.744-.749 0-1.372-1.247-1.372-2.744 0-1.496.623-2.743 1.372-2.743.748 0 1.371 1.247 1.371 2.743zM53.266 154.244c0 1.496-.623 2.743-1.371 2.743-.749 0-1.372-1.247-1.372-2.743 0-1.497.623-2.744 1.371-2.744.749 0 1.372 1.247 1.372 2.744zM71.974 147.135c0 1.496-.624 2.743-1.372 2.743-.748 0-1.372-1.247-1.372-2.743 0-1.497.624-2.744 1.372-2.744.748 0 1.372 1.247 1.372 2.744zM44.411 155.491c0 1.497-.623 2.744-1.371 2.744-.749 0-1.372-1.247-1.372-2.744s.623-2.744 1.372-2.744c.748.125 1.371 1.247 1.371 2.744zM62.495 156.114c0 1.497-.623 2.744-1.371 2.744-.749 0-1.372-1.247-1.372-2.744 0-1.496.623-2.744 1.372-2.744.748 0 1.371 1.248 1.371 2.744z" fill="#B1D8B0"/><path d="M14.73 159.232v8.73c0 23.447 16.712 42.653 37.04 42.653h4.24c20.33 0 37.041-19.206 37.041-42.653v-8.73H14.73z" fill="#ECC742"/><path d="M101.906 173.824H6.623v1.372h95.283v-1.372zM101.906 195.025H6.623v1.372h95.283v-1.372z" fill="#fff"/><path opacity=".1" d="M76.963 159.232v8.73c0 23.197-5.487 42.279-25.691 42.653h4.863c20.33 0 37.041-19.206 37.041-42.653v-8.73H76.963z" fill="#482C80"/><path d="M96.793 154.992H11.238v8.481h85.555v-8.481z" fill="#D4A000"/></svg>