<svg width="1152" height="1100" fill="none" xmlns="http://www.w3.org/2000/svg"><g filter="url(#a)"><circle cx="755.825" cy="562.849" r="163.571" fill="#53C351" fill-opacity=".33"/></g><g filter="url(#b)"><circle cx="426.899" cy="636.462" r="163.571" fill="#53C351" fill-opacity=".33"/></g><g filter="url(#c)"><circle cx="413.166" cy="413.264" r="162.494" fill="#FFE978" fill-opacity=".33"/></g><g filter="url(#d)"><circle cx="636.923" cy="686.598" r="162.494" fill="#FFE978" fill-opacity=".33"/></g><path fill-rule="evenodd" clip-rule="evenodd" d="M420.148 602.516c23.155-14.494 44.494-1.206 60.974 10.642 13.673 9.83 23.803 24.918 13.558 42.939-10.093 17.753-33.35 25.604-53.633 27.55-20.183 1.937-39.308-2.369-43.397-18.241-5.245-20.362-1.661-47.768 22.498-62.89z" fill="#0CA941"/><path fill-rule="evenodd" clip-rule="evenodd" d="M452.509 418.412c25.414 10.02 43.965-6.943 58.003-21.602 11.648-12.163 18.851-28.847 5.486-44.694-13.166-15.61-37.466-19.08-57.763-17.288-20.198 1.784-38.214 9.511-39.334 25.863-1.437 20.978 7.093 47.268 33.608 57.721z" fill="#EA671C"/><path fill-rule="evenodd" clip-rule="evenodd" d="M703.319 564.516c25.613 9.501 43.815-7.836 57.553-22.778 11.397-12.397 18.26-29.224 4.575-44.796-13.481-15.338-37.846-18.314-58.103-16.109-20.157 2.194-38.012 10.285-38.8 26.657-1.01 21.002 8.053 47.113 34.775 57.026z" fill="#0CA941"/><defs><filter id="a" x="360.254" y="167.277" width="791.142" height="791.142" filterUnits="userSpaceOnUse" color-interpolation-filters="sRGB"><feFlood flood-opacity="0" result="BackgroundImageFix"/><feBlend in="SourceGraphic" in2="BackgroundImageFix" result="shape"/><feGaussianBlur stdDeviation="116" result="effect1_foregroundBlur_5606_5"/></filter><filter id="b" x="31.328" y="240.891" width="791.142" height="791.142" filterUnits="userSpaceOnUse" color-interpolation-filters="sRGB"><feFlood flood-opacity="0" result="BackgroundImageFix"/><feBlend in="SourceGraphic" in2="BackgroundImageFix" result="shape"/><feGaussianBlur stdDeviation="116" result="effect1_foregroundBlur_5606_5"/></filter><filter id="c" x=".672" y=".771" width="824.988" height="824.988" filterUnits="userSpaceOnUse" color-interpolation-filters="sRGB"><feFlood flood-opacity="0" result="BackgroundImageFix"/><feBlend in="SourceGraphic" in2="BackgroundImageFix" result="shape"/><feGaussianBlur stdDeviation="125" result="effect1_foregroundBlur_5606_5"/></filter><filter id="d" x="224.429" y="274.104" width="824.988" height="824.988" filterUnits="userSpaceOnUse" color-interpolation-filters="sRGB"><feFlood flood-opacity="0" result="BackgroundImageFix"/><feBlend in="SourceGraphic" in2="BackgroundImageFix" result="shape"/><feGaussianBlur stdDeviation="125" result="effect1_foregroundBlur_5606_5"/></filter></defs></svg>