<svg width="53" height="53" fill="none" xmlns="http://www.w3.org/2000/svg"><g clip-path="url(#a)" fill="#0CA941"><path d="M52.596 41.033a3.462 3.462 0 0 0-4.244-2.436l-4.713 1.442a5.956 5.956 0 0 0-3.52-6.79 4.306 4.306 0 0 0-4.09-5.652c-.086 0-.173 0-.258.007a6.041 6.041 0 0 0-4.91-4.242v-1.229a2.57 2.57 0 0 1 .757-1.827l2.326-2.326a6.404 6.404 0 0 0 4.008 1.423A8.15 8.15 0 0 0 43.65 16.8c2.78-2.78 5.417-13.229 5.708-14.411a.86.86 0 0 0-1.042-1.042c-1.183.29-11.628 2.928-14.412 5.708-2.992 2.993-3.42 6.87-1.18 9.707L30.4 19.088a4.29 4.29 0 0 0-.972 1.516 5.185 5.185 0 0 0-1.132-.923l-2.935-1.757a6.316 6.316 0 0 0 .243-5.02A8.481 8.481 0 0 0 21.8 8.648C18.395 6.682 7.618 6.84 6.403 6.863a.861.861 0 0 0-.737 1.277c.589 1.066 5.839 10.477 9.244 12.443a8.943 8.943 0 0 0 4.426 1.26c.389.001.778-.03 1.162-.095a6.284 6.284 0 0 0 3.954-2.36l2.96 1.77a3.57 3.57 0 0 1 1.621 2.218 6.035 6.035 0 0 0-5.063 5.943v.06a6.04 6.04 0 0 0-6.89 5.97h-.267a31.268 31.268 0 0 0-5.822.55c-1.194.235-2.339.67-3.386 1.29v-2.702a.861.861 0 0 0-.861-.861H1.576a.861.861 0 0 0-.862.861v17.227c0 .476.386.861.862.861h5.168a.861.861 0 0 0 .861-.861v-2.757a10.82 10.82 0 0 0 3.618 1.428c1.652.312 3.33.468 5.012.468h12.36a18.223 18.223 0 0 0 4.698-.622l16.87-4.977a3.445 3.445 0 0 0 2.434-4.22zM35.124 8.272c1.808-1.809 8.481-3.883 12.197-4.887-1.004 3.712-3.082 10.39-4.887 12.197-1.943 1.941-4.845 2.943-7.26 1.167l2.557-2.556 1.88.94a.862.862 0 1 0 .775-1.541l-1.367-.683 1.757-1.764 1.885.948a.862.862 0 0 0 .775-1.541l-1.378-.687 2.201-2.202a.861.861 0 1 0-1.218-1.218l-2.2 2.202-.683-1.369a.862.862 0 0 0-1.54.77l.942 1.882-1.76 1.761-.684-1.368a.862.862 0 0 0-1.54.771l.94 1.88-2.557 2.557c-1.78-2.413-.772-5.317 1.165-7.26zM20.212 20.049a6.765 6.765 0 0 1-4.44-.958c-2.21-1.276-5.944-7.186-7.88-10.517 3.851.01 10.837.29 13.047 1.566 2.433 1.405 4.184 4.032 2.938 6.896l-3.094-1.848.452-2.208a.862.862 0 0 0-1.688-.344l-.33 1.615-2.154-1.285.438-2.139a.861.861 0 0 0-1.688-.344l-.316 1.55-2.67-1.599a.862.862 0 0 0-.885 1.48l2.67 1.596-1.106.98a.862.862 0 1 0 1.143 1.292l1.513-1.341 2.128 1.272-1.053.935a.861.861 0 1 0 1.141 1.291l1.465-1.291 3.117 1.864a4.593 4.593 0 0 1-2.748 1.537zm2.897 10.993a4.1 4.1 0 0 1 1.55.291.861.861 0 0 0 1.16-1.004 4.231 4.231 0 0 1-.126-1.01 4.303 4.303 0 0 1 8.56-.615.862.862 0 0 0 1.099.71c.22-.064.448-.096.677-.095a2.584 2.584 0 0 1 2.584 2.584c0 .494-.143.978-.413 1.391a.862.862 0 0 0 .531 1.31 4.327 4.327 0 0 1 3.327 4.19 4.24 4.24 0 0 1-.42 1.86l-4.23 1.297a3.425 3.425 0 0 0-2.519-2.783l-3.786-1.012-7.34-2.153a16.334 16.334 0 0 0-1.574-.365.852.852 0 0 0 .059-.29c0-.475.385-.86.86-.86a.692.692 0 0 1 .26.039.861.861 0 0 0 .645-1.597 2.383 2.383 0 0 0-.904-.165 2.584 2.584 0 0 0-2.584 2.584c0 .022.011.04.013.063a16.274 16.274 0 0 0-1.374-.063h-.362a4.312 4.312 0 0 1 4.307-4.307zM5.882 50.852H2.437V35.35h3.445v15.504zm43.814-7.26-16.868 4.982c-1.381.367-2.804.554-4.232.556h-12.36a25.24 25.24 0 0 1-4.689-.442 9.12 9.12 0 0 1-3.117-1.245l-.825-.517v-7.692l.094-.067a9.25 9.25 0 0 1 3.617-1.579 29.533 29.533 0 0 1 5.497-.517h2.351c1.393 0 2.779.197 4.116.586l7.359 2.159 3.804 1.016a1.711 1.711 0 0 1 1.224 2.084v.012l-.005.01v.008a1.73 1.73 0 0 1-2.107 1.217l-10.232-2.739a.862.862 0 1 0-.446 1.663l10.234 2.74c.289.078.586.117.885.116a3.451 3.451 0 0 0 3.171-2.119l11.656-3.566a1.731 1.731 0 0 1 2.111 1.228 1.728 1.728 0 0 1-1.239 2.107z"/><path d="M28.324 30.575a.863.863 0 0 0 .836-1.067.861.861 0 0 1 .84-1.05.845.845 0 0 1 .841.716.85.85 0 0 0 .97.735c.471-.065.8-.499.736-.97a2.58 2.58 0 1 0-5.059.983c.096.384.44.653.836.653zM37.314 36.93a.86.86 0 0 0 .648 1.034.86.86 0 0 1 .65.83.861.861 0 0 0 1.724 0 2.59 2.59 0 0 0-1.991-2.511.861.861 0 0 0-1.03.648zM31.56 33.268a2.57 2.57 0 0 0-3.031 1.465.862.862 0 0 0 1.588.669.838.838 0 0 1 .997-.473.86.86 0 0 1 .608 1.057.861.861 0 1 0 1.664.447 2.588 2.588 0 0 0-1.826-3.165zM35.168 31.903c.475 0 .86.386.86.861a.861.861 0 0 0 1.724 0 2.584 2.584 0 0 0-2.584-2.584.861.861 0 0 0 0 1.723z"/></g><defs><clipPath id="a"><path fill="#fff" transform="translate(.714 .895)" d="M0 0h52v52H0z"/></clipPath></defs></svg>