<svg width="51" height="53" fill="none" xmlns="http://www.w3.org/2000/svg"><path d="M5.309 37.12c-.94-2.062-5.293-2.774-5.293-2.774.892-1.932 2.978-3.054 5.118-2.752l.175 5.525zM6.413 39.645h1.553c2.052-.187 3.998.926 4.843 2.77 0 0-4.157.681-5.226 2.636l-1.17-5.406z" fill="#F3D55B"/><path d="M11.896 5.692v-.035S10.79-.075 2.728.277a.923.923 0 0 0-.727.403.887.887 0 0 0-.095.815c1.421 3.73 5.131 6.134 9.185 5.955l.805-1.758z" fill="#24AE5F"/><path d="M14.241 6.792c2.282.23 4.096 1.98 4.371 4.214 0 0-3.354-.493-5.218.511h-1.498l2.345-4.725z" fill="#F3D55B"/><path d="M12.188 15.187a75.61 75.61 0 0 1 1.197-3.667h.01a47.573 47.573 0 0 1 1.882-4.5c.383-.79.786-1.543 1.206-2.27.329-.55.333-1.23.01-1.784a1.82 1.82 0 0 0-1.573-.896h-.009a1.814 1.814 0 0 0-1.572.879c-.502.87-.987 1.784-1.443 2.734v.01a44.734 44.734 0 0 0-.805 1.756 62.487 62.487 0 0 0-2.156 5.9l-1.517 5.576v.01C4.147 32.67 3.735 47.524 3.681 51.37c-.005.24.09.472.262.642.172.17.407.266.651.264h1.828c.498 0 .904-.39.914-.879a169.885 169.885 0 0 1 3.125-29.326l1.727-6.885z" fill="#4FBA6F"/><path d="M21.946 30.034h5.483v5.45h-5.483v-5.45zM28.47 21.49a23.97 23.97 0 0 0 .788-5.971c0-6.437-3.272-13.448-7.31-13.448v18.648l6.523.77z" fill="#7F8C8D"/><path d="m27.422 30.017 2.739-4.654 4.807 2.723-2.739 4.655-4.807-2.724zM19.36 26.645a24.927 24.927 0 0 1-5.665-2.313C8.02 21.113 3.46 14.828 5.48 11.394l16.467 9.325-2.587 5.926z" fill="#547580"/><path d="M26.515 35.243H22.86c-1.01 0-1.827.802-1.827 1.793v13.448c0 .99.818 1.793 1.827 1.793h3.655c1.01 0 1.828-.803 1.828-1.793V37.036c0-.99-.818-1.793-1.828-1.793zM47.516 40.38l1.828-3.105a1.775 1.775 0 0 0-.67-2.45l-11.87-6.723a1.847 1.847 0 0 0-2.496.656l-1.828 3.105a1.775 1.775 0 0 0 .67 2.45l11.87 6.724a1.847 1.847 0 0 0 2.496-.656z" fill="#F0C419"/><path d="M30.172 25.38a5.348 5.348 0 0 1-2.742 4.654 5.538 5.538 0 0 1-5.483 0 5.402 5.402 0 0 1-2.586-3.39 5.213 5.213 0 0 1-.155-1.263 5.348 5.348 0 0 1 2.741-4.654v-.009a5.579 5.579 0 0 1 5.482.005 5.366 5.366 0 0 1 2.743 4.658z" fill="#95A5A5"/><path d="M24.688 27.174c1.01 0 1.827-.803 1.827-1.793 0-.99-.818-1.794-1.827-1.794-1.01 0-1.828.803-1.828 1.794 0 .99.819 1.793 1.828 1.793z" fill="#547580"/></svg>