<svg width="146" height="35" fill="none" xmlns="http://www.w3.org/2000/svg"><path d="M62.407 5.53v8.985h-8.402V5.53h-4.46v22.622h4.46V18.78h8.402v9.372h4.428V5.53h-4.428zm16.128 23.075c4.75 0 8.564-3.716 8.564-8.532 0-4.815-3.814-8.531-8.564-8.531s-8.532 3.716-8.532 8.531c0 4.816 3.781 8.532 8.532 8.532zm0-4.072c-2.456 0-4.363-1.842-4.363-4.46 0-2.617 1.907-4.46 4.363-4.46 2.488 0 4.395 1.843 4.395 4.46 0 2.618-1.907 4.46-4.395 4.46zm20.9-12.991c-2.359 0-4.071.872-5.235 2.359V5.53h-4.169v22.622h4.17v-1.907c1.163 1.487 2.875 2.359 5.235 2.359 4.33 0 7.885-3.716 7.885-8.532 0-4.815-3.555-8.531-7.885-8.531zM98.66 24.63c-2.553 0-4.46-1.842-4.46-4.557 0-2.714 1.907-4.556 4.46-4.556 2.585 0 4.492 1.842 4.492 4.556 0 2.715-1.907 4.557-4.492 4.557zm21.005-13.088c-2.359 0-4.072.872-5.235 2.359V5.53h-4.169v22.622h4.169v-1.907c1.163 1.487 2.876 2.359 5.235 2.359 4.33 0 7.885-3.716 7.885-8.532 0-4.815-3.555-8.531-7.885-8.531zm-.776 13.088c-2.553 0-4.459-1.842-4.459-4.557 0-2.714 1.906-4.556 4.459-4.556 2.586 0 4.492 1.842 4.492 4.556 0 2.715-1.906 4.557-4.492 4.557zm21.505-12.636-3.587 10.859-4.201-10.859h-4.557l6.625 15.642c-.775 2.165-1.939 3.134-4.233 3.102v3.878c4.104.226 6.851-1.81 8.532-6.463l5.881-16.159h-4.46z" fill="#374A3D"/><g clip-path="url(#a)"><path d="M19.167 7.742c-1.923 2.348-2.922 5.272-2.84 8.353l.023.748-1.417-.337-1.036-1.084c.038-1.772.38-3.507 1.029-5.167 1.23-3.171 3.026-4.831 4.248-6.057l.485 1.974-.492 1.57z" fill="#0CA941"/><path d="M15.567 8.826c-.224.442-.44.92-.641 1.436a15.189 15.189 0 0 0-.999 4.472c1.066.217 1.9.531 2.4.748a12.617 12.617 0 0 1 1.58-5.885 6.83 6.83 0 0 0-2.34-.77z" fill="url(#b)"/><path d="M9.902 23.85c3.049.5 6.097-.15 8.632-1.713l.633-.389.485 1.6-.485 1.242a15.05 15.05 0 0 1-7.237 1.862c-2.229 0-3.697-.464-5.084-.838l1.431-1.316 1.625-.448z" fill="#0CA941"/><path d="M12.504 24c.588.822.886 1.69 1.043 2.362a15.077 15.077 0 0 0 5.62-1.78l.03-.082a6.94 6.94 0 0 0-.85-2.258 12.543 12.543 0 0 1-5.844 1.757z" fill="url(#c)"/><path d="M28.432 23.85A12.566 12.566 0 0 0 22.64 17.2l-.655-.358 1.192-1.175 1.26-.239a14.87 14.87 0 0 1 3.943 3.478c2.117 2.654 2.653 5.04 3.1 6.715l-1.468-.36-1.58-1.413z" fill="#0CA941"/><path d="M23.408 17.65a12.54 12.54 0 0 1 4.144 4.323 6.98 6.98 0 0 0 1.782-1.75 15.203 15.203 0 0 0-.947-1.324 14.945 14.945 0 0 0-3.391-3.118 12.132 12.132 0 0 1-1.588 1.87z" fill="url(#d)"/><path d="M12.495 34.462c-2.288 0-4.576-1.414-6.246-3.022-9.265-9.295-6-25.029 6.045-29.927 11.97-4.875 25.134 3.949 25.134 16.975 0 9.243-6.753 15.974-11.59 15.974-3.9 0-6.202-4.024-5.345-8.077 1.52-7.239 5.925-7.126 8.199-13.37-4.525-.92-7 .418-9.518 1.966-2.52-1.548-4.98-2.886-9.519-1.967 2.266 6.237 6.679 6.147 8.2 13.371.841 4.06-1.462 8.076-5.36 8.076zm-4.54-4.757c5.524 5.07 8.267.763 7.514-2.811-1.416-6.745-6.172-6.147-8.55-14.418l-.342-1.197c3.503-.942 7.483-2.019 12.59.86 2.25-1.263 4.404-1.861 6.745-1.861 2.34 0 4.248.568 5.843 1.002l-.343 1.196c-2.377 8.27-7.133 7.672-8.549 14.418-.753 3.567 1.975 7.897 7.513 2.811 6.157-6.191 6.15-16.257-.015-22.441-6.186-6.207-16.204-6.207-22.39 0-6.164 6.184-6.172 16.242-.015 22.441z" fill="#0CA941"/><path d="M22.745 27.925c.007-.344.052-.695.12-1.04.446-2.138 1.229-3.536 2.168-4.718a11.94 11.94 0 0 1-2.504-.733c-.85 1.227-1.58 2.745-2.043 4.943a8.19 8.19 0 0 0-.119.726c.91.516 1.767.732 2.378.822z" fill="url(#e)"/><path d="M9.015 17.194c1.32 2.012 2.803 3.2 4.047 4.689a12.908 12.908 0 0 1 1.7-1.758c-1.29-1.465-2.713-2.654-3.906-4.584a7.07 7.07 0 0 0-1.84 1.653z" fill="url(#f)"/><path d="M25.905 12.707c-.09-.927-.358-1.794-.596-2.423-2.027.09-3.936.643-5.91 1.72.461 1.017.61 1.862.64 2.446 1.67-.965 3.429-1.743 5.866-1.743z" fill="url(#g)"/><path d="M6.846 25.614c.41-1.54.94-4.008 3.101-6.715a14.987 14.987 0 0 1 3.943-3.477l2.452 1.42-.656.36c-2.705 1.473-4.725 3.798-5.791 6.647l-3.049 1.765zM31.488 25.615l-1.17.314a14.994 14.994 0 0 1-11.15-1.346V21.74l.633.389a12.587 12.587 0 0 0 8.631 1.712l3.056 1.773zM21.985 16.843l.022-.748a12.596 12.596 0 0 0-2.84-8.353V4.205l.857.86a15.109 15.109 0 0 1 4.413 10.357l-2.452 1.42z" fill="#0CA941"/></g><defs><linearGradient id="b" x1="16.479" y1="9.334" x2="15.174" y2="14.828" gradientUnits="userSpaceOnUse"><stop stop-color="#0CA941"/><stop offset=".5" stop-color="#088733"/><stop offset="1" stop-color="#0CA941"/></linearGradient><linearGradient id="c" x1="13.345" y1="25.288" x2="18.599" y2="23.413" gradientUnits="userSpaceOnUse"><stop stop-color="#0CA941"/><stop offset=".5" stop-color="#088733"/><stop offset="1" stop-color="#0CA941"/></linearGradient><linearGradient id="d" x1="24.345" y1="16.881" x2="28.441" y2="20.77" gradientUnits="userSpaceOnUse"><stop stop-color="#0CA941"/><stop offset=".5" stop-color="#088733"/><stop offset="1" stop-color="#0CA941"/></linearGradient><linearGradient id="e" x1="23.503" y1="21.911" x2="21.644" y2="27.338" gradientUnits="userSpaceOnUse"><stop stop-color="#0CA941"/><stop offset=".5" stop-color="#067E2F"/><stop offset="1" stop-color="#0CA941"/></linearGradient><linearGradient id="f" x1="9.852" y1="16.481" x2="13.913" y2="20.752" gradientUnits="userSpaceOnUse"><stop stop-color="#0CA941"/><stop offset=".5" stop-color="#088733"/><stop offset="1" stop-color="#0CA941"/></linearGradient><linearGradient id="g" x1="19.957" y1="12.97" x2="25.469" y2="11.386" gradientUnits="userSpaceOnUse"><stop stop-color="#0CA941"/><stop offset=".5" stop-color="#088733"/><stop offset="1" stop-color="#0CA941"/></linearGradient><clipPath id="a"><path fill="#fff" transform="translate(.906 .152)" d="M0 0h36.523v34.309H0z"/></clipPath></defs></svg>